<mxfile host="Electron" modified="2024-06-11T20:24:20.639Z" agent="Mozilla/5.0 (Windows NT 10.0; Win64; x64) AppleWebKit/537.36 (KHTML, like Gecko) draw.io/24.4.6 Chrome/124.0.6367.207 Electron/30.0.6 Safari/537.36" etag="_L9dlU3n-ZR-JnRZD41g" version="24.4.6" type="device">
  <diagram name="Page-1" id="XRLeTd8azhKNHmmkkcV2">
    <mxGraphModel dx="2937" dy="3224" grid="1" gridSize="10" guides="1" tooltips="1" connect="1" arrows="1" fold="1" page="1" pageScale="1" pageWidth="850" pageHeight="1100" math="0" shadow="0">
      <root>
        <mxCell id="0" />
        <mxCell id="1" parent="0" />
        <mxCell id="SfsOYb53XxXa-xQl9RYC-4" style="edgeStyle=orthogonalEdgeStyle;rounded=0;orthogonalLoop=1;jettySize=auto;html=1;exitX=0.5;exitY=1;exitDx=0;exitDy=0;entryX=0.5;entryY=0;entryDx=0;entryDy=0;" parent="1" source="SfsOYb53XxXa-xQl9RYC-1" target="SfsOYb53XxXa-xQl9RYC-2" edge="1">
          <mxGeometry relative="1" as="geometry" />
        </mxCell>
        <mxCell id="SfsOYb53XxXa-xQl9RYC-1" value="" style="ellipse;html=1;shape=endState;fillColor=#000000;strokeColor=#ff0000;" parent="1" vertex="1">
          <mxGeometry x="410" y="20" width="30" height="30" as="geometry" />
        </mxCell>
        <mxCell id="SfsOYb53XxXa-xQl9RYC-8" style="edgeStyle=orthogonalEdgeStyle;rounded=0;orthogonalLoop=1;jettySize=auto;html=1;exitX=0;exitY=0.5;exitDx=0;exitDy=0;" parent="1" source="SfsOYb53XxXa-xQl9RYC-2" target="SfsOYb53XxXa-xQl9RYC-7" edge="1">
          <mxGeometry relative="1" as="geometry" />
        </mxCell>
        <mxCell id="SfsOYb53XxXa-xQl9RYC-13" value="1" style="edgeLabel;html=1;align=center;verticalAlign=middle;resizable=0;points=[];" parent="SfsOYb53XxXa-xQl9RYC-8" vertex="1" connectable="0">
          <mxGeometry x="-0.0267" y="-1" relative="1" as="geometry">
            <mxPoint as="offset" />
          </mxGeometry>
        </mxCell>
        <mxCell id="SfsOYb53XxXa-xQl9RYC-9" style="edgeStyle=orthogonalEdgeStyle;rounded=0;orthogonalLoop=1;jettySize=auto;html=1;" parent="1" source="SfsOYb53XxXa-xQl9RYC-2" target="SfsOYb53XxXa-xQl9RYC-6" edge="1">
          <mxGeometry relative="1" as="geometry" />
        </mxCell>
        <mxCell id="SfsOYb53XxXa-xQl9RYC-14" value="2" style="edgeLabel;html=1;align=center;verticalAlign=middle;resizable=0;points=[];" parent="SfsOYb53XxXa-xQl9RYC-9" vertex="1" connectable="0">
          <mxGeometry x="-0.2533" relative="1" as="geometry">
            <mxPoint as="offset" />
          </mxGeometry>
        </mxCell>
        <mxCell id="SfsOYb53XxXa-xQl9RYC-10" style="edgeStyle=orthogonalEdgeStyle;rounded=0;orthogonalLoop=1;jettySize=auto;html=1;exitX=0.5;exitY=1;exitDx=0;exitDy=0;" parent="1" source="SfsOYb53XxXa-xQl9RYC-2" target="SfsOYb53XxXa-xQl9RYC-57" edge="1">
          <mxGeometry relative="1" as="geometry">
            <mxPoint x="425" y="230" as="targetPoint" />
            <Array as="points">
              <mxPoint x="425" y="205" />
              <mxPoint x="426" y="205" />
            </Array>
          </mxGeometry>
        </mxCell>
        <mxCell id="SfsOYb53XxXa-xQl9RYC-15" value="3" style="edgeLabel;html=1;align=center;verticalAlign=middle;resizable=0;points=[];" parent="SfsOYb53XxXa-xQl9RYC-10" vertex="1" connectable="0">
          <mxGeometry x="-0.2923" y="-1" relative="1" as="geometry">
            <mxPoint as="offset" />
          </mxGeometry>
        </mxCell>
        <mxCell id="SfsOYb53XxXa-xQl9RYC-2" value="USER Choice" style="rhombus;whiteSpace=wrap;html=1;" parent="1" vertex="1">
          <mxGeometry x="360" y="100" width="130" height="80" as="geometry" />
        </mxCell>
        <mxCell id="SfsOYb53XxXa-xQl9RYC-133" style="edgeStyle=orthogonalEdgeStyle;rounded=0;orthogonalLoop=1;jettySize=auto;html=1;exitX=1;exitY=0.5;exitDx=0;exitDy=0;entryX=0;entryY=0.5;entryDx=0;entryDy=0;" parent="1" source="SfsOYb53XxXa-xQl9RYC-6" target="SfsOYb53XxXa-xQl9RYC-132" edge="1">
          <mxGeometry relative="1" as="geometry" />
        </mxCell>
        <mxCell id="SfsOYb53XxXa-xQl9RYC-6" value="Manager" style="rounded=1;whiteSpace=wrap;html=1;" parent="1" vertex="1">
          <mxGeometry x="590" y="110" width="120" height="60" as="geometry" />
        </mxCell>
        <mxCell id="SfsOYb53XxXa-xQl9RYC-68" style="edgeStyle=orthogonalEdgeStyle;rounded=0;orthogonalLoop=1;jettySize=auto;html=1;exitX=0;exitY=0.5;exitDx=0;exitDy=0;" parent="1" source="SfsOYb53XxXa-xQl9RYC-7" edge="1">
          <mxGeometry relative="1" as="geometry">
            <mxPoint x="80" y="140" as="targetPoint" />
          </mxGeometry>
        </mxCell>
        <mxCell id="SfsOYb53XxXa-xQl9RYC-7" value="Employee" style="rounded=1;whiteSpace=wrap;html=1;" parent="1" vertex="1">
          <mxGeometry x="140" y="110" width="120" height="60" as="geometry" />
        </mxCell>
        <mxCell id="SfsOYb53XxXa-xQl9RYC-18" style="edgeStyle=orthogonalEdgeStyle;rounded=0;orthogonalLoop=1;jettySize=auto;html=1;exitX=0;exitY=0.5;exitDx=0;exitDy=0;entryX=1;entryY=0.5;entryDx=0;entryDy=0;" parent="1" source="SfsOYb53XxXa-xQl9RYC-16" target="SfsOYb53XxXa-xQl9RYC-17" edge="1">
          <mxGeometry relative="1" as="geometry" />
        </mxCell>
        <mxCell id="SfsOYb53XxXa-xQl9RYC-38" value="1" style="edgeLabel;html=1;align=center;verticalAlign=middle;resizable=0;points=[];" parent="SfsOYb53XxXa-xQl9RYC-18" vertex="1" connectable="0">
          <mxGeometry x="-0.0702" y="1" relative="1" as="geometry">
            <mxPoint as="offset" />
          </mxGeometry>
        </mxCell>
        <mxCell id="SfsOYb53XxXa-xQl9RYC-42" style="edgeStyle=orthogonalEdgeStyle;rounded=0;orthogonalLoop=1;jettySize=auto;html=1;exitX=0;exitY=1;exitDx=0;exitDy=0;entryX=1;entryY=0.5;entryDx=0;entryDy=0;" parent="1" source="SfsOYb53XxXa-xQl9RYC-16" target="SfsOYb53XxXa-xQl9RYC-41" edge="1">
          <mxGeometry relative="1" as="geometry">
            <Array as="points">
              <mxPoint x="-160" y="260" />
            </Array>
          </mxGeometry>
        </mxCell>
        <mxCell id="SfsOYb53XxXa-xQl9RYC-43" value="2" style="edgeLabel;html=1;align=center;verticalAlign=middle;resizable=0;points=[];" parent="SfsOYb53XxXa-xQl9RYC-42" vertex="1" connectable="0">
          <mxGeometry x="0.1167" relative="1" as="geometry">
            <mxPoint as="offset" />
          </mxGeometry>
        </mxCell>
        <mxCell id="SfsOYb53XxXa-xQl9RYC-63" style="edgeStyle=orthogonalEdgeStyle;rounded=0;orthogonalLoop=1;jettySize=auto;html=1;entryX=0.5;entryY=1;entryDx=0;entryDy=0;" parent="1" source="SfsOYb53XxXa-xQl9RYC-16" target="SfsOYb53XxXa-xQl9RYC-62" edge="1">
          <mxGeometry relative="1" as="geometry" />
        </mxCell>
        <mxCell id="SfsOYb53XxXa-xQl9RYC-64" value="4" style="edgeLabel;html=1;align=center;verticalAlign=middle;resizable=0;points=[];" parent="SfsOYb53XxXa-xQl9RYC-63" vertex="1" connectable="0">
          <mxGeometry x="-0.2889" y="-4" relative="1" as="geometry">
            <mxPoint as="offset" />
          </mxGeometry>
        </mxCell>
        <mxCell id="SfsOYb53XxXa-xQl9RYC-65" style="edgeStyle=orthogonalEdgeStyle;rounded=0;orthogonalLoop=1;jettySize=auto;html=1;exitX=1;exitY=1;exitDx=0;exitDy=0;entryX=0.5;entryY=0;entryDx=0;entryDy=0;" parent="1" source="SfsOYb53XxXa-xQl9RYC-16" target="SfsOYb53XxXa-xQl9RYC-61" edge="1">
          <mxGeometry relative="1" as="geometry">
            <Array as="points">
              <mxPoint x="-120" y="260" />
              <mxPoint x="100" y="260" />
            </Array>
          </mxGeometry>
        </mxCell>
        <mxCell id="SfsOYb53XxXa-xQl9RYC-74" value="3" style="edgeLabel;html=1;align=center;verticalAlign=middle;resizable=0;points=[];" parent="SfsOYb53XxXa-xQl9RYC-65" vertex="1" connectable="0">
          <mxGeometry x="-0.2489" y="3" relative="1" as="geometry">
            <mxPoint as="offset" />
          </mxGeometry>
        </mxCell>
        <mxCell id="SfsOYb53XxXa-xQl9RYC-16" value="choice" style="rhombus;whiteSpace=wrap;html=1;" parent="1" vertex="1">
          <mxGeometry x="-180" y="100" width="80" height="80" as="geometry" />
        </mxCell>
        <mxCell id="SfsOYb53XxXa-xQl9RYC-22" style="edgeStyle=orthogonalEdgeStyle;rounded=0;orthogonalLoop=1;jettySize=auto;html=1;exitX=0;exitY=0.5;exitDx=0;exitDy=0;entryX=0.5;entryY=0;entryDx=0;entryDy=0;" parent="1" source="SfsOYb53XxXa-xQl9RYC-17" target="SfsOYb53XxXa-xQl9RYC-21" edge="1">
          <mxGeometry relative="1" as="geometry">
            <Array as="points">
              <mxPoint x="-730" y="140" />
            </Array>
          </mxGeometry>
        </mxCell>
        <mxCell id="SfsOYb53XxXa-xQl9RYC-17" value="insert employe" style="rounded=1;whiteSpace=wrap;html=1;" parent="1" vertex="1">
          <mxGeometry x="-600" y="110" width="120" height="60" as="geometry" />
        </mxCell>
        <mxCell id="SfsOYb53XxXa-xQl9RYC-24" style="edgeStyle=orthogonalEdgeStyle;rounded=0;orthogonalLoop=1;jettySize=auto;html=1;exitX=0.5;exitY=1;exitDx=0;exitDy=0;" parent="1" source="SfsOYb53XxXa-xQl9RYC-21" target="SfsOYb53XxXa-xQl9RYC-23" edge="1">
          <mxGeometry relative="1" as="geometry" />
        </mxCell>
        <mxCell id="SfsOYb53XxXa-xQl9RYC-25" value="yes" style="edgeLabel;html=1;align=center;verticalAlign=middle;resizable=0;points=[];" parent="SfsOYb53XxXa-xQl9RYC-24" vertex="1" connectable="0">
          <mxGeometry x="-0.0267" y="-4" relative="1" as="geometry">
            <mxPoint as="offset" />
          </mxGeometry>
        </mxCell>
        <mxCell id="SfsOYb53XxXa-xQl9RYC-35" style="edgeStyle=orthogonalEdgeStyle;rounded=0;orthogonalLoop=1;jettySize=auto;html=1;exitX=1;exitY=0.5;exitDx=0;exitDy=0;entryX=0;entryY=0.5;entryDx=0;entryDy=0;" parent="1" source="SfsOYb53XxXa-xQl9RYC-21" target="SfsOYb53XxXa-xQl9RYC-34" edge="1">
          <mxGeometry relative="1" as="geometry" />
        </mxCell>
        <mxCell id="SfsOYb53XxXa-xQl9RYC-37" value="no" style="edgeLabel;html=1;align=center;verticalAlign=middle;resizable=0;points=[];" parent="SfsOYb53XxXa-xQl9RYC-35" vertex="1" connectable="0">
          <mxGeometry x="-0.0583" y="-3" relative="1" as="geometry">
            <mxPoint as="offset" />
          </mxGeometry>
        </mxCell>
        <mxCell id="SfsOYb53XxXa-xQl9RYC-21" value="add" style="rhombus;whiteSpace=wrap;html=1;" parent="1" vertex="1">
          <mxGeometry x="-770" y="210" width="80" height="80" as="geometry" />
        </mxCell>
        <mxCell id="SfsOYb53XxXa-xQl9RYC-28" style="edgeStyle=orthogonalEdgeStyle;rounded=0;orthogonalLoop=1;jettySize=auto;html=1;exitX=1;exitY=0.5;exitDx=0;exitDy=0;entryX=0;entryY=0.5;entryDx=0;entryDy=0;" parent="1" source="SfsOYb53XxXa-xQl9RYC-23" target="SfsOYb53XxXa-xQl9RYC-29" edge="1">
          <mxGeometry relative="1" as="geometry">
            <mxPoint x="-620" y="370" as="targetPoint" />
          </mxGeometry>
        </mxCell>
        <mxCell id="SfsOYb53XxXa-xQl9RYC-23" value="insert employee in DataBase" style="rounded=1;whiteSpace=wrap;html=1;" parent="1" vertex="1">
          <mxGeometry x="-790" y="340" width="120" height="60" as="geometry" />
        </mxCell>
        <mxCell id="SfsOYb53XxXa-xQl9RYC-29" value="return menu Employee" style="rounded=1;whiteSpace=wrap;html=1;" parent="1" vertex="1">
          <mxGeometry x="-610" y="340" width="120" height="60" as="geometry" />
        </mxCell>
        <mxCell id="SfsOYb53XxXa-xQl9RYC-36" style="edgeStyle=orthogonalEdgeStyle;rounded=0;orthogonalLoop=1;jettySize=auto;html=1;exitX=0.5;exitY=1;exitDx=0;exitDy=0;entryX=0.5;entryY=0;entryDx=0;entryDy=0;" parent="1" source="SfsOYb53XxXa-xQl9RYC-34" target="SfsOYb53XxXa-xQl9RYC-29" edge="1">
          <mxGeometry relative="1" as="geometry" />
        </mxCell>
        <mxCell id="SfsOYb53XxXa-xQl9RYC-34" value="Exception errors" style="rounded=1;whiteSpace=wrap;html=1;" parent="1" vertex="1">
          <mxGeometry x="-610" y="220" width="120" height="60" as="geometry" />
        </mxCell>
        <mxCell id="SfsOYb53XxXa-xQl9RYC-44" style="edgeStyle=orthogonalEdgeStyle;rounded=0;orthogonalLoop=1;jettySize=auto;html=1;exitX=0.5;exitY=1;exitDx=0;exitDy=0;entryX=0.5;entryY=0;entryDx=0;entryDy=0;" parent="1" source="SfsOYb53XxXa-xQl9RYC-41" target="SfsOYb53XxXa-xQl9RYC-45" edge="1">
          <mxGeometry relative="1" as="geometry">
            <mxPoint x="-280" y="330" as="targetPoint" />
          </mxGeometry>
        </mxCell>
        <mxCell id="SfsOYb53XxXa-xQl9RYC-41" value="Update Emplyee" style="rounded=1;whiteSpace=wrap;html=1;" parent="1" vertex="1">
          <mxGeometry x="-290" y="230" width="120" height="60" as="geometry" />
        </mxCell>
        <mxCell id="SfsOYb53XxXa-xQl9RYC-48" value="" style="edgeStyle=orthogonalEdgeStyle;rounded=0;orthogonalLoop=1;jettySize=auto;html=1;" parent="1" source="SfsOYb53XxXa-xQl9RYC-45" target="SfsOYb53XxXa-xQl9RYC-46" edge="1">
          <mxGeometry relative="1" as="geometry" />
        </mxCell>
        <mxCell id="SfsOYb53XxXa-xQl9RYC-50" value="no" style="edgeLabel;html=1;align=center;verticalAlign=middle;resizable=0;points=[];" parent="SfsOYb53XxXa-xQl9RYC-48" vertex="1" connectable="0">
          <mxGeometry x="-0.2333" y="1" relative="1" as="geometry">
            <mxPoint as="offset" />
          </mxGeometry>
        </mxCell>
        <mxCell id="SfsOYb53XxXa-xQl9RYC-49" style="edgeStyle=orthogonalEdgeStyle;rounded=0;orthogonalLoop=1;jettySize=auto;html=1;entryX=0.5;entryY=0;entryDx=0;entryDy=0;" parent="1" source="SfsOYb53XxXa-xQl9RYC-45" target="SfsOYb53XxXa-xQl9RYC-47" edge="1">
          <mxGeometry relative="1" as="geometry" />
        </mxCell>
        <mxCell id="SfsOYb53XxXa-xQl9RYC-51" value="yes" style="edgeLabel;html=1;align=center;verticalAlign=middle;resizable=0;points=[];" parent="SfsOYb53XxXa-xQl9RYC-49" vertex="1" connectable="0">
          <mxGeometry x="-0.0833" y="-2" relative="1" as="geometry">
            <mxPoint as="offset" />
          </mxGeometry>
        </mxCell>
        <mxCell id="SfsOYb53XxXa-xQl9RYC-45" value="Update" style="rhombus;whiteSpace=wrap;html=1;" parent="1" vertex="1">
          <mxGeometry x="-270" y="330" width="80" height="80" as="geometry" />
        </mxCell>
        <mxCell id="SfsOYb53XxXa-xQl9RYC-54" style="edgeStyle=orthogonalEdgeStyle;rounded=0;orthogonalLoop=1;jettySize=auto;html=1;entryX=0.5;entryY=0;entryDx=0;entryDy=0;" parent="1" source="SfsOYb53XxXa-xQl9RYC-46" target="SfsOYb53XxXa-xQl9RYC-53" edge="1">
          <mxGeometry relative="1" as="geometry" />
        </mxCell>
        <mxCell id="SfsOYb53XxXa-xQl9RYC-46" value="Exception errors" style="rounded=1;whiteSpace=wrap;html=1;" parent="1" vertex="1">
          <mxGeometry x="-440" y="340" width="120" height="60" as="geometry" />
        </mxCell>
        <mxCell id="SfsOYb53XxXa-xQl9RYC-55" style="edgeStyle=orthogonalEdgeStyle;rounded=0;orthogonalLoop=1;jettySize=auto;html=1;exitX=0;exitY=0.5;exitDx=0;exitDy=0;entryX=1;entryY=0.5;entryDx=0;entryDy=0;" parent="1" source="SfsOYb53XxXa-xQl9RYC-47" target="SfsOYb53XxXa-xQl9RYC-53" edge="1">
          <mxGeometry relative="1" as="geometry" />
        </mxCell>
        <mxCell id="SfsOYb53XxXa-xQl9RYC-47" value="Update employee details&amp;nbsp;from&amp;nbsp;DataBase" style="rounded=1;whiteSpace=wrap;html=1;" parent="1" vertex="1">
          <mxGeometry x="-290" y="450" width="120" height="60" as="geometry" />
        </mxCell>
        <mxCell id="SfsOYb53XxXa-xQl9RYC-53" value="return menu Employee" style="rounded=1;whiteSpace=wrap;html=1;" parent="1" vertex="1">
          <mxGeometry x="-440" y="450" width="120" height="60" as="geometry" />
        </mxCell>
        <mxCell id="SfsOYb53XxXa-xQl9RYC-60" style="edgeStyle=orthogonalEdgeStyle;rounded=0;orthogonalLoop=1;jettySize=auto;html=1;exitX=0.5;exitY=1;exitDx=0;exitDy=0;" parent="1" source="SfsOYb53XxXa-xQl9RYC-57" target="SfsOYb53XxXa-xQl9RYC-59" edge="1">
          <mxGeometry relative="1" as="geometry" />
        </mxCell>
        <mxCell id="SfsOYb53XxXa-xQl9RYC-57" value="End Program" style="rounded=1;whiteSpace=wrap;html=1;" parent="1" vertex="1">
          <mxGeometry x="365" y="230" width="120" height="60" as="geometry" />
        </mxCell>
        <mxCell id="SfsOYb53XxXa-xQl9RYC-59" value="" style="ellipse;html=1;shape=endState;fillColor=#000000;strokeColor=#ff0000;" parent="1" vertex="1">
          <mxGeometry x="410" y="320" width="30" height="30" as="geometry" />
        </mxCell>
        <mxCell id="SfsOYb53XxXa-xQl9RYC-66" style="edgeStyle=orthogonalEdgeStyle;rounded=0;orthogonalLoop=1;jettySize=auto;html=1;exitX=0.5;exitY=1;exitDx=0;exitDy=0;" parent="1" source="SfsOYb53XxXa-xQl9RYC-61" target="SfsOYb53XxXa-xQl9RYC-67" edge="1">
          <mxGeometry relative="1" as="geometry">
            <mxPoint x="10" y="460" as="targetPoint" />
          </mxGeometry>
        </mxCell>
        <mxCell id="SfsOYb53XxXa-xQl9RYC-61" value="Search menu" style="rounded=1;whiteSpace=wrap;html=1;" parent="1" vertex="1">
          <mxGeometry x="40" y="350" width="120" height="60" as="geometry" />
        </mxCell>
        <mxCell id="SfsOYb53XxXa-xQl9RYC-73" style="edgeStyle=orthogonalEdgeStyle;rounded=0;orthogonalLoop=1;jettySize=auto;html=1;exitX=1;exitY=0.5;exitDx=0;exitDy=0;entryX=0;entryY=0;entryDx=0;entryDy=0;" parent="1" source="SfsOYb53XxXa-xQl9RYC-62" target="SfsOYb53XxXa-xQl9RYC-2" edge="1">
          <mxGeometry relative="1" as="geometry">
            <Array as="points">
              <mxPoint x="310" y="10" />
              <mxPoint x="310" y="70" />
              <mxPoint x="393" y="70" />
            </Array>
          </mxGeometry>
        </mxCell>
        <mxCell id="SfsOYb53XxXa-xQl9RYC-62" value="Exit menu Employee&lt;br&gt;and return main menu" style="rounded=1;whiteSpace=wrap;html=1;" parent="1" vertex="1">
          <mxGeometry x="-200" y="-20" width="120" height="60" as="geometry" />
        </mxCell>
        <mxCell id="SfsOYb53XxXa-xQl9RYC-75" style="edgeStyle=orthogonalEdgeStyle;rounded=0;orthogonalLoop=1;jettySize=auto;html=1;exitX=0;exitY=0.5;exitDx=0;exitDy=0;entryX=0.5;entryY=0;entryDx=0;entryDy=0;" parent="1" source="SfsOYb53XxXa-xQl9RYC-67" target="SfsOYb53XxXa-xQl9RYC-76" edge="1">
          <mxGeometry relative="1" as="geometry">
            <mxPoint y="590" as="targetPoint" />
            <Array as="points">
              <mxPoint x="-60" y="500" />
              <mxPoint x="-60" y="540" />
              <mxPoint x="-230" y="540" />
            </Array>
          </mxGeometry>
        </mxCell>
        <mxCell id="SfsOYb53XxXa-xQl9RYC-77" value="1" style="edgeLabel;html=1;align=center;verticalAlign=middle;resizable=0;points=[];" parent="SfsOYb53XxXa-xQl9RYC-75" vertex="1" connectable="0">
          <mxGeometry x="-0.3467" y="-3" relative="1" as="geometry">
            <mxPoint as="offset" />
          </mxGeometry>
        </mxCell>
        <mxCell id="SfsOYb53XxXa-xQl9RYC-79" style="edgeStyle=orthogonalEdgeStyle;rounded=0;orthogonalLoop=1;jettySize=auto;html=1;exitX=0.5;exitY=1;exitDx=0;exitDy=0;entryX=0.5;entryY=0;entryDx=0;entryDy=0;" parent="1" source="SfsOYb53XxXa-xQl9RYC-67" target="SfsOYb53XxXa-xQl9RYC-78" edge="1">
          <mxGeometry relative="1" as="geometry" />
        </mxCell>
        <mxCell id="SfsOYb53XxXa-xQl9RYC-80" value="2" style="edgeLabel;html=1;align=center;verticalAlign=middle;resizable=0;points=[];" parent="SfsOYb53XxXa-xQl9RYC-79" vertex="1" connectable="0">
          <mxGeometry x="-0.4833" relative="1" as="geometry">
            <mxPoint as="offset" />
          </mxGeometry>
        </mxCell>
        <mxCell id="SfsOYb53XxXa-xQl9RYC-82" style="edgeStyle=orthogonalEdgeStyle;rounded=0;orthogonalLoop=1;jettySize=auto;html=1;exitX=1;exitY=0.5;exitDx=0;exitDy=0;" parent="1" source="SfsOYb53XxXa-xQl9RYC-67" target="SfsOYb53XxXa-xQl9RYC-81" edge="1">
          <mxGeometry relative="1" as="geometry" />
        </mxCell>
        <mxCell id="SfsOYb53XxXa-xQl9RYC-89" value="3" style="edgeLabel;html=1;align=center;verticalAlign=middle;resizable=0;points=[];" parent="SfsOYb53XxXa-xQl9RYC-82" vertex="1" connectable="0">
          <mxGeometry x="-0.4533" y="-1" relative="1" as="geometry">
            <mxPoint as="offset" />
          </mxGeometry>
        </mxCell>
        <mxCell id="SfsOYb53XxXa-xQl9RYC-85" style="edgeStyle=orthogonalEdgeStyle;rounded=0;orthogonalLoop=1;jettySize=auto;html=1;exitX=1;exitY=0;exitDx=0;exitDy=0;entryX=0.5;entryY=1;entryDx=0;entryDy=0;" parent="1" source="SfsOYb53XxXa-xQl9RYC-67" target="SfsOYb53XxXa-xQl9RYC-84" edge="1">
          <mxGeometry relative="1" as="geometry" />
        </mxCell>
        <mxCell id="SfsOYb53XxXa-xQl9RYC-88" value="4" style="edgeLabel;html=1;align=center;verticalAlign=middle;resizable=0;points=[];" parent="SfsOYb53XxXa-xQl9RYC-85" vertex="1" connectable="0">
          <mxGeometry x="0.0491" y="5" relative="1" as="geometry">
            <mxPoint as="offset" />
          </mxGeometry>
        </mxCell>
        <mxCell id="SfsOYb53XxXa-xQl9RYC-67" value="Choice" style="rhombus;whiteSpace=wrap;html=1;" parent="1" vertex="1">
          <mxGeometry x="60" y="460" width="80" height="80" as="geometry" />
        </mxCell>
        <mxCell id="SfsOYb53XxXa-xQl9RYC-72" style="edgeStyle=orthogonalEdgeStyle;rounded=0;orthogonalLoop=1;jettySize=auto;html=1;exitX=0;exitY=0.5;exitDx=0;exitDy=0;entryX=1;entryY=0.5;entryDx=0;entryDy=0;" parent="1" source="SfsOYb53XxXa-xQl9RYC-69" target="SfsOYb53XxXa-xQl9RYC-16" edge="1">
          <mxGeometry relative="1" as="geometry" />
        </mxCell>
        <mxCell id="SfsOYb53XxXa-xQl9RYC-69" value="menu Employee" style="rounded=1;whiteSpace=wrap;html=1;" parent="1" vertex="1">
          <mxGeometry x="-40" y="110" width="120" height="60" as="geometry" />
        </mxCell>
        <mxCell id="SfsOYb53XxXa-xQl9RYC-91" style="edgeStyle=orthogonalEdgeStyle;rounded=0;orthogonalLoop=1;jettySize=auto;html=1;exitX=0.5;exitY=1;exitDx=0;exitDy=0;" parent="1" source="SfsOYb53XxXa-xQl9RYC-76" target="SfsOYb53XxXa-xQl9RYC-90" edge="1">
          <mxGeometry relative="1" as="geometry" />
        </mxCell>
        <mxCell id="SfsOYb53XxXa-xQl9RYC-76" value="Search Employee By ID" style="rounded=1;whiteSpace=wrap;html=1;" parent="1" vertex="1">
          <mxGeometry x="-290" y="580" width="120" height="60" as="geometry" />
        </mxCell>
        <mxCell id="SfsOYb53XxXa-xQl9RYC-118" style="edgeStyle=orthogonalEdgeStyle;rounded=0;orthogonalLoop=1;jettySize=auto;html=1;exitX=0.5;exitY=1;exitDx=0;exitDy=0;" parent="1" source="SfsOYb53XxXa-xQl9RYC-78" target="SfsOYb53XxXa-xQl9RYC-112" edge="1">
          <mxGeometry relative="1" as="geometry" />
        </mxCell>
        <mxCell id="SfsOYb53XxXa-xQl9RYC-78" value="Search Employee By Department ID" style="rounded=1;whiteSpace=wrap;html=1;" parent="1" vertex="1">
          <mxGeometry x="40" y="580" width="120" height="60" as="geometry" />
        </mxCell>
        <mxCell id="SfsOYb53XxXa-xQl9RYC-131" style="edgeStyle=orthogonalEdgeStyle;rounded=0;orthogonalLoop=1;jettySize=auto;html=1;exitX=0.5;exitY=1;exitDx=0;exitDy=0;" parent="1" source="SfsOYb53XxXa-xQl9RYC-81" target="SfsOYb53XxXa-xQl9RYC-125" edge="1">
          <mxGeometry relative="1" as="geometry" />
        </mxCell>
        <mxCell id="SfsOYb53XxXa-xQl9RYC-81" value="Search Employee Project Join Project By Employee ID" style="rounded=1;whiteSpace=wrap;html=1;" parent="1" vertex="1">
          <mxGeometry x="400" y="580" width="120" height="60" as="geometry" />
        </mxCell>
        <mxCell id="SfsOYb53XxXa-xQl9RYC-87" style="edgeStyle=orthogonalEdgeStyle;rounded=0;orthogonalLoop=1;jettySize=auto;html=1;exitX=0.5;exitY=0;exitDx=0;exitDy=0;entryX=0.5;entryY=1;entryDx=0;entryDy=0;" parent="1" source="SfsOYb53XxXa-xQl9RYC-84" target="SfsOYb53XxXa-xQl9RYC-69" edge="1">
          <mxGeometry relative="1" as="geometry">
            <Array as="points">
              <mxPoint x="280" y="220" />
              <mxPoint x="20" y="220" />
            </Array>
          </mxGeometry>
        </mxCell>
        <mxCell id="SfsOYb53XxXa-xQl9RYC-84" value="Exit menu search return menu employee" style="rounded=1;whiteSpace=wrap;html=1;" parent="1" vertex="1">
          <mxGeometry x="220" y="390" width="120" height="60" as="geometry" />
        </mxCell>
        <mxCell id="SfsOYb53XxXa-xQl9RYC-93" style="edgeStyle=orthogonalEdgeStyle;rounded=0;orthogonalLoop=1;jettySize=auto;html=1;exitX=0.5;exitY=1;exitDx=0;exitDy=0;entryX=0.5;entryY=0;entryDx=0;entryDy=0;" parent="1" source="SfsOYb53XxXa-xQl9RYC-90" target="SfsOYb53XxXa-xQl9RYC-92" edge="1">
          <mxGeometry relative="1" as="geometry" />
        </mxCell>
        <mxCell id="SfsOYb53XxXa-xQl9RYC-94" value="yes" style="edgeLabel;html=1;align=center;verticalAlign=middle;resizable=0;points=[];" parent="SfsOYb53XxXa-xQl9RYC-93" vertex="1" connectable="0">
          <mxGeometry x="0.0667" y="-2" relative="1" as="geometry">
            <mxPoint as="offset" />
          </mxGeometry>
        </mxCell>
        <mxCell id="SfsOYb53XxXa-xQl9RYC-98" style="edgeStyle=orthogonalEdgeStyle;rounded=0;orthogonalLoop=1;jettySize=auto;html=1;exitX=0;exitY=0.5;exitDx=0;exitDy=0;entryX=1;entryY=0.5;entryDx=0;entryDy=0;" parent="1" source="SfsOYb53XxXa-xQl9RYC-90" target="SfsOYb53XxXa-xQl9RYC-97" edge="1">
          <mxGeometry relative="1" as="geometry" />
        </mxCell>
        <mxCell id="SfsOYb53XxXa-xQl9RYC-119" value="no" style="edgeLabel;html=1;align=center;verticalAlign=middle;resizable=0;points=[];" parent="SfsOYb53XxXa-xQl9RYC-98" vertex="1" connectable="0">
          <mxGeometry x="-0.0762" y="-2" relative="1" as="geometry">
            <mxPoint as="offset" />
          </mxGeometry>
        </mxCell>
        <mxCell id="SfsOYb53XxXa-xQl9RYC-90" value="Find" style="rhombus;whiteSpace=wrap;html=1;" parent="1" vertex="1">
          <mxGeometry x="-270" y="680" width="80" height="80" as="geometry" />
        </mxCell>
        <mxCell id="SfsOYb53XxXa-xQl9RYC-96" style="edgeStyle=orthogonalEdgeStyle;rounded=0;orthogonalLoop=1;jettySize=auto;html=1;exitX=0;exitY=0.5;exitDx=0;exitDy=0;entryX=1;entryY=0.5;entryDx=0;entryDy=0;" parent="1" source="SfsOYb53XxXa-xQl9RYC-92" target="SfsOYb53XxXa-xQl9RYC-95" edge="1">
          <mxGeometry relative="1" as="geometry" />
        </mxCell>
        <mxCell id="SfsOYb53XxXa-xQl9RYC-92" value="Rerurn employee details&amp;nbsp;where id details in DataBase" style="rounded=1;whiteSpace=wrap;html=1;" parent="1" vertex="1">
          <mxGeometry x="-290" y="810" width="120" height="60" as="geometry" />
        </mxCell>
        <mxCell id="SfsOYb53XxXa-xQl9RYC-95" value="return menu search" style="rounded=1;whiteSpace=wrap;html=1;" parent="1" vertex="1">
          <mxGeometry x="-460" y="810" width="120" height="60" as="geometry" />
        </mxCell>
        <mxCell id="SfsOYb53XxXa-xQl9RYC-99" style="edgeStyle=orthogonalEdgeStyle;rounded=0;orthogonalLoop=1;jettySize=auto;html=1;exitX=0.5;exitY=1;exitDx=0;exitDy=0;" parent="1" source="SfsOYb53XxXa-xQl9RYC-97" target="SfsOYb53XxXa-xQl9RYC-95" edge="1">
          <mxGeometry relative="1" as="geometry" />
        </mxCell>
        <mxCell id="SfsOYb53XxXa-xQl9RYC-97" value="Exception errors" style="rounded=1;whiteSpace=wrap;html=1;" parent="1" vertex="1">
          <mxGeometry x="-460" y="690" width="120" height="60" as="geometry" />
        </mxCell>
        <mxCell id="SfsOYb53XxXa-xQl9RYC-109" style="edgeStyle=orthogonalEdgeStyle;rounded=0;orthogonalLoop=1;jettySize=auto;html=1;exitX=0.5;exitY=1;exitDx=0;exitDy=0;entryX=0.5;entryY=0;entryDx=0;entryDy=0;" parent="1" source="SfsOYb53XxXa-xQl9RYC-112" target="SfsOYb53XxXa-xQl9RYC-114" edge="1">
          <mxGeometry relative="1" as="geometry" />
        </mxCell>
        <mxCell id="SfsOYb53XxXa-xQl9RYC-110" value="yes" style="edgeLabel;html=1;align=center;verticalAlign=middle;resizable=0;points=[];" parent="SfsOYb53XxXa-xQl9RYC-109" vertex="1" connectable="0">
          <mxGeometry x="0.0667" y="-2" relative="1" as="geometry">
            <mxPoint as="offset" />
          </mxGeometry>
        </mxCell>
        <mxCell id="SfsOYb53XxXa-xQl9RYC-111" style="edgeStyle=orthogonalEdgeStyle;rounded=0;orthogonalLoop=1;jettySize=auto;html=1;exitX=0;exitY=0.5;exitDx=0;exitDy=0;entryX=1;entryY=0.5;entryDx=0;entryDy=0;" parent="1" source="SfsOYb53XxXa-xQl9RYC-112" target="SfsOYb53XxXa-xQl9RYC-117" edge="1">
          <mxGeometry relative="1" as="geometry" />
        </mxCell>
        <mxCell id="SfsOYb53XxXa-xQl9RYC-120" value="no" style="edgeLabel;html=1;align=center;verticalAlign=middle;resizable=0;points=[];" parent="SfsOYb53XxXa-xQl9RYC-111" vertex="1" connectable="0">
          <mxGeometry x="-0.1905" y="-4" relative="1" as="geometry">
            <mxPoint as="offset" />
          </mxGeometry>
        </mxCell>
        <mxCell id="SfsOYb53XxXa-xQl9RYC-112" value="Find" style="rhombus;whiteSpace=wrap;html=1;" parent="1" vertex="1">
          <mxGeometry x="60" y="680" width="80" height="80" as="geometry" />
        </mxCell>
        <mxCell id="SfsOYb53XxXa-xQl9RYC-113" style="edgeStyle=orthogonalEdgeStyle;rounded=0;orthogonalLoop=1;jettySize=auto;html=1;exitX=0;exitY=0.5;exitDx=0;exitDy=0;entryX=1;entryY=0.5;entryDx=0;entryDy=0;" parent="1" source="SfsOYb53XxXa-xQl9RYC-114" target="SfsOYb53XxXa-xQl9RYC-115" edge="1">
          <mxGeometry relative="1" as="geometry" />
        </mxCell>
        <mxCell id="SfsOYb53XxXa-xQl9RYC-114" value="Rerurn employee details&amp;nbsp;where department id from in DataBase" style="rounded=1;whiteSpace=wrap;html=1;" parent="1" vertex="1">
          <mxGeometry x="40" y="810" width="120" height="70" as="geometry" />
        </mxCell>
        <mxCell id="SfsOYb53XxXa-xQl9RYC-115" value="return menu search" style="rounded=1;whiteSpace=wrap;html=1;" parent="1" vertex="1">
          <mxGeometry x="-130" y="810" width="120" height="60" as="geometry" />
        </mxCell>
        <mxCell id="SfsOYb53XxXa-xQl9RYC-116" style="edgeStyle=orthogonalEdgeStyle;rounded=0;orthogonalLoop=1;jettySize=auto;html=1;exitX=0.5;exitY=1;exitDx=0;exitDy=0;" parent="1" source="SfsOYb53XxXa-xQl9RYC-117" target="SfsOYb53XxXa-xQl9RYC-115" edge="1">
          <mxGeometry relative="1" as="geometry" />
        </mxCell>
        <mxCell id="SfsOYb53XxXa-xQl9RYC-117" value="Exception errors" style="rounded=1;whiteSpace=wrap;html=1;" parent="1" vertex="1">
          <mxGeometry x="-130" y="690" width="120" height="60" as="geometry" />
        </mxCell>
        <mxCell id="SfsOYb53XxXa-xQl9RYC-121" style="edgeStyle=orthogonalEdgeStyle;rounded=0;orthogonalLoop=1;jettySize=auto;html=1;exitX=0.5;exitY=1;exitDx=0;exitDy=0;entryX=0.5;entryY=0;entryDx=0;entryDy=0;" parent="1" source="SfsOYb53XxXa-xQl9RYC-125" target="SfsOYb53XxXa-xQl9RYC-127" edge="1">
          <mxGeometry relative="1" as="geometry" />
        </mxCell>
        <mxCell id="SfsOYb53XxXa-xQl9RYC-122" value="yes" style="edgeLabel;html=1;align=center;verticalAlign=middle;resizable=0;points=[];" parent="SfsOYb53XxXa-xQl9RYC-121" vertex="1" connectable="0">
          <mxGeometry x="0.0667" y="-2" relative="1" as="geometry">
            <mxPoint as="offset" />
          </mxGeometry>
        </mxCell>
        <mxCell id="SfsOYb53XxXa-xQl9RYC-123" style="edgeStyle=orthogonalEdgeStyle;rounded=0;orthogonalLoop=1;jettySize=auto;html=1;exitX=0;exitY=0.5;exitDx=0;exitDy=0;entryX=1;entryY=0.5;entryDx=0;entryDy=0;" parent="1" source="SfsOYb53XxXa-xQl9RYC-125" target="SfsOYb53XxXa-xQl9RYC-130" edge="1">
          <mxGeometry relative="1" as="geometry" />
        </mxCell>
        <mxCell id="SfsOYb53XxXa-xQl9RYC-124" value="no" style="edgeLabel;html=1;align=center;verticalAlign=middle;resizable=0;points=[];" parent="SfsOYb53XxXa-xQl9RYC-123" vertex="1" connectable="0">
          <mxGeometry x="-0.1905" y="-4" relative="1" as="geometry">
            <mxPoint as="offset" />
          </mxGeometry>
        </mxCell>
        <mxCell id="SfsOYb53XxXa-xQl9RYC-125" value="Find" style="rhombus;whiteSpace=wrap;html=1;" parent="1" vertex="1">
          <mxGeometry x="420" y="680" width="80" height="80" as="geometry" />
        </mxCell>
        <mxCell id="SfsOYb53XxXa-xQl9RYC-126" style="edgeStyle=orthogonalEdgeStyle;rounded=0;orthogonalLoop=1;jettySize=auto;html=1;exitX=0;exitY=0.5;exitDx=0;exitDy=0;entryX=1;entryY=0.5;entryDx=0;entryDy=0;" parent="1" source="SfsOYb53XxXa-xQl9RYC-127" target="SfsOYb53XxXa-xQl9RYC-128" edge="1">
          <mxGeometry relative="1" as="geometry" />
        </mxCell>
        <mxCell id="SfsOYb53XxXa-xQl9RYC-127" value="Rerurn project and emplyee project details&amp;nbsp;where employee id from DataBase" style="rounded=1;whiteSpace=wrap;html=1;" parent="1" vertex="1">
          <mxGeometry x="395" y="810" width="130" height="80" as="geometry" />
        </mxCell>
        <mxCell id="SfsOYb53XxXa-xQl9RYC-128" value="return menu search" style="rounded=1;whiteSpace=wrap;html=1;" parent="1" vertex="1">
          <mxGeometry x="230" y="810" width="120" height="60" as="geometry" />
        </mxCell>
        <mxCell id="SfsOYb53XxXa-xQl9RYC-129" style="edgeStyle=orthogonalEdgeStyle;rounded=0;orthogonalLoop=1;jettySize=auto;html=1;exitX=0.5;exitY=1;exitDx=0;exitDy=0;" parent="1" source="SfsOYb53XxXa-xQl9RYC-130" target="SfsOYb53XxXa-xQl9RYC-128" edge="1">
          <mxGeometry relative="1" as="geometry" />
        </mxCell>
        <mxCell id="SfsOYb53XxXa-xQl9RYC-130" value="Exception errors" style="rounded=1;whiteSpace=wrap;html=1;" parent="1" vertex="1">
          <mxGeometry x="230" y="690" width="120" height="60" as="geometry" />
        </mxCell>
        <mxCell id="SfsOYb53XxXa-xQl9RYC-135" style="edgeStyle=orthogonalEdgeStyle;rounded=0;orthogonalLoop=1;jettySize=auto;html=1;exitX=1;exitY=0.5;exitDx=0;exitDy=0;entryX=0;entryY=0.5;entryDx=0;entryDy=0;" parent="1" source="SfsOYb53XxXa-xQl9RYC-132" target="SfsOYb53XxXa-xQl9RYC-134" edge="1">
          <mxGeometry relative="1" as="geometry" />
        </mxCell>
        <mxCell id="SfsOYb53XxXa-xQl9RYC-132" value="menu Manager" style="rounded=1;whiteSpace=wrap;html=1;" parent="1" vertex="1">
          <mxGeometry x="770" y="110" width="120" height="60" as="geometry" />
        </mxCell>
        <mxCell id="SfsOYb53XxXa-xQl9RYC-155" style="edgeStyle=orthogonalEdgeStyle;rounded=0;orthogonalLoop=1;jettySize=auto;html=1;exitX=0;exitY=1;exitDx=0;exitDy=0;entryX=0.5;entryY=0;entryDx=0;entryDy=0;" parent="1" source="SfsOYb53XxXa-xQl9RYC-134" target="SfsOYb53XxXa-xQl9RYC-140" edge="1">
          <mxGeometry relative="1" as="geometry">
            <Array as="points">
              <mxPoint x="990" y="160" />
              <mxPoint x="990" y="210" />
              <mxPoint x="600" y="210" />
            </Array>
          </mxGeometry>
        </mxCell>
        <mxCell id="SfsOYb53XxXa-xQl9RYC-156" value="1" style="edgeLabel;html=1;align=center;verticalAlign=middle;resizable=0;points=[];" parent="SfsOYb53XxXa-xQl9RYC-155" vertex="1" connectable="0">
          <mxGeometry x="0.2504" relative="1" as="geometry">
            <mxPoint x="1" as="offset" />
          </mxGeometry>
        </mxCell>
        <mxCell id="SfsOYb53XxXa-xQl9RYC-157" style="edgeStyle=orthogonalEdgeStyle;rounded=0;orthogonalLoop=1;jettySize=auto;html=1;exitX=0.5;exitY=1;exitDx=0;exitDy=0;entryX=0.5;entryY=0;entryDx=0;entryDy=0;" parent="1" source="SfsOYb53XxXa-xQl9RYC-134" target="SfsOYb53XxXa-xQl9RYC-158" edge="1">
          <mxGeometry relative="1" as="geometry">
            <mxPoint x="1050.1428571428573" y="250" as="targetPoint" />
          </mxGeometry>
        </mxCell>
        <mxCell id="SfsOYb53XxXa-xQl9RYC-159" value="2" style="edgeLabel;html=1;align=center;verticalAlign=middle;resizable=0;points=[];" parent="SfsOYb53XxXa-xQl9RYC-157" vertex="1" connectable="0">
          <mxGeometry x="-0.2299" y="2" relative="1" as="geometry">
            <mxPoint as="offset" />
          </mxGeometry>
        </mxCell>
        <mxCell id="SfsOYb53XxXa-xQl9RYC-173" style="edgeStyle=orthogonalEdgeStyle;rounded=0;orthogonalLoop=1;jettySize=auto;html=1;exitX=1;exitY=1;exitDx=0;exitDy=0;entryX=0.5;entryY=0;entryDx=0;entryDy=0;" parent="1" source="SfsOYb53XxXa-xQl9RYC-134" target="SfsOYb53XxXa-xQl9RYC-171" edge="1">
          <mxGeometry relative="1" as="geometry">
            <mxPoint x="1089.9999999999995" y="160" as="sourcePoint" />
            <mxPoint x="1360" y="250" as="targetPoint" />
            <Array as="points">
              <mxPoint x="1130" y="160" />
              <mxPoint x="1130" y="210" />
              <mxPoint x="1360" y="210" />
            </Array>
          </mxGeometry>
        </mxCell>
        <mxCell id="SfsOYb53XxXa-xQl9RYC-253" value="3" style="edgeLabel;html=1;align=center;verticalAlign=middle;resizable=0;points=[];" parent="SfsOYb53XxXa-xQl9RYC-173" vertex="1" connectable="0">
          <mxGeometry x="0.3266" relative="1" as="geometry">
            <mxPoint x="1" as="offset" />
          </mxGeometry>
        </mxCell>
        <mxCell id="SfsOYb53XxXa-xQl9RYC-254" style="edgeStyle=orthogonalEdgeStyle;rounded=0;orthogonalLoop=1;jettySize=auto;html=1;" parent="1" source="SfsOYb53XxXa-xQl9RYC-134" target="SfsOYb53XxXa-xQl9RYC-136" edge="1">
          <mxGeometry relative="1" as="geometry" />
        </mxCell>
        <mxCell id="SfsOYb53XxXa-xQl9RYC-255" value="6" style="edgeLabel;html=1;align=center;verticalAlign=middle;resizable=0;points=[];" parent="SfsOYb53XxXa-xQl9RYC-254" vertex="1" connectable="0">
          <mxGeometry x="-0.1481" y="-1" relative="1" as="geometry">
            <mxPoint y="-1" as="offset" />
          </mxGeometry>
        </mxCell>
        <mxCell id="SfsOYb53XxXa-xQl9RYC-256" style="edgeStyle=orthogonalEdgeStyle;rounded=0;orthogonalLoop=1;jettySize=auto;html=1;exitX=1;exitY=0.5;exitDx=0;exitDy=0;entryX=0.5;entryY=0;entryDx=0;entryDy=0;" parent="1" source="SfsOYb53XxXa-xQl9RYC-134" target="SfsOYb53XxXa-xQl9RYC-260" edge="1">
          <mxGeometry relative="1" as="geometry">
            <mxPoint x="2180" y="220" as="targetPoint" />
          </mxGeometry>
        </mxCell>
        <mxCell id="SfsOYb53XxXa-xQl9RYC-258" value="4" style="edgeLabel;html=1;align=center;verticalAlign=middle;resizable=0;points=[];" parent="SfsOYb53XxXa-xQl9RYC-256" vertex="1" connectable="0">
          <mxGeometry x="0.9445" y="1" relative="1" as="geometry">
            <mxPoint as="offset" />
          </mxGeometry>
        </mxCell>
        <mxCell id="SfsOYb53XxXa-xQl9RYC-257" style="edgeStyle=orthogonalEdgeStyle;rounded=0;orthogonalLoop=1;jettySize=auto;html=1;exitX=1;exitY=0;exitDx=0;exitDy=0;entryX=0.5;entryY=0;entryDx=0;entryDy=0;" parent="1" source="SfsOYb53XxXa-xQl9RYC-134" target="SfsOYb53XxXa-xQl9RYC-172" edge="1">
          <mxGeometry relative="1" as="geometry" />
        </mxCell>
        <mxCell id="SfsOYb53XxXa-xQl9RYC-259" value="5" style="edgeLabel;html=1;align=center;verticalAlign=middle;resizable=0;points=[];" parent="SfsOYb53XxXa-xQl9RYC-257" vertex="1" connectable="0">
          <mxGeometry x="0.9485" y="3" relative="1" as="geometry">
            <mxPoint y="-1" as="offset" />
          </mxGeometry>
        </mxCell>
        <mxCell id="SfsOYb53XxXa-xQl9RYC-134" value="choice" style="rhombus;whiteSpace=wrap;html=1;" parent="1" vertex="1">
          <mxGeometry x="1020" y="100" width="80" height="80" as="geometry" />
        </mxCell>
        <mxCell id="SfsOYb53XxXa-xQl9RYC-138" style="edgeStyle=orthogonalEdgeStyle;rounded=0;orthogonalLoop=1;jettySize=auto;html=1;exitX=0;exitY=0.5;exitDx=0;exitDy=0;entryX=1;entryY=0;entryDx=0;entryDy=0;" parent="1" source="SfsOYb53XxXa-xQl9RYC-136" target="SfsOYb53XxXa-xQl9RYC-2" edge="1">
          <mxGeometry relative="1" as="geometry">
            <Array as="points">
              <mxPoint x="530" y="10" />
              <mxPoint x="530" y="70" />
              <mxPoint x="457" y="70" />
            </Array>
          </mxGeometry>
        </mxCell>
        <mxCell id="SfsOYb53XxXa-xQl9RYC-136" value="Exit menu Employee&lt;br&gt;and return main menu" style="rounded=1;whiteSpace=wrap;html=1;" parent="1" vertex="1">
          <mxGeometry x="1000" y="-20" width="120" height="60" as="geometry" />
        </mxCell>
        <mxCell id="SfsOYb53XxXa-xQl9RYC-154" style="edgeStyle=orthogonalEdgeStyle;rounded=0;orthogonalLoop=1;jettySize=auto;html=1;exitX=0.5;exitY=1;exitDx=0;exitDy=0;" parent="1" source="SfsOYb53XxXa-xQl9RYC-140" target="SfsOYb53XxXa-xQl9RYC-145" edge="1">
          <mxGeometry relative="1" as="geometry" />
        </mxCell>
        <mxCell id="SfsOYb53XxXa-xQl9RYC-140" value="insert EmployeeProject" style="rounded=1;whiteSpace=wrap;html=1;" parent="1" vertex="1">
          <mxGeometry x="540" y="250" width="120" height="60" as="geometry" />
        </mxCell>
        <mxCell id="SfsOYb53XxXa-xQl9RYC-141" style="edgeStyle=orthogonalEdgeStyle;rounded=0;orthogonalLoop=1;jettySize=auto;html=1;exitX=0.5;exitY=1;exitDx=0;exitDy=0;" parent="1" source="SfsOYb53XxXa-xQl9RYC-145" target="SfsOYb53XxXa-xQl9RYC-147" edge="1">
          <mxGeometry relative="1" as="geometry" />
        </mxCell>
        <mxCell id="SfsOYb53XxXa-xQl9RYC-142" value="yes" style="edgeLabel;html=1;align=center;verticalAlign=middle;resizable=0;points=[];" parent="SfsOYb53XxXa-xQl9RYC-141" vertex="1" connectable="0">
          <mxGeometry x="-0.0267" y="-4" relative="1" as="geometry">
            <mxPoint as="offset" />
          </mxGeometry>
        </mxCell>
        <mxCell id="SfsOYb53XxXa-xQl9RYC-143" style="edgeStyle=orthogonalEdgeStyle;rounded=0;orthogonalLoop=1;jettySize=auto;html=1;exitX=1;exitY=0.5;exitDx=0;exitDy=0;entryX=0;entryY=0.5;entryDx=0;entryDy=0;" parent="1" source="SfsOYb53XxXa-xQl9RYC-145" target="SfsOYb53XxXa-xQl9RYC-150" edge="1">
          <mxGeometry relative="1" as="geometry" />
        </mxCell>
        <mxCell id="SfsOYb53XxXa-xQl9RYC-144" value="no" style="edgeLabel;html=1;align=center;verticalAlign=middle;resizable=0;points=[];" parent="SfsOYb53XxXa-xQl9RYC-143" vertex="1" connectable="0">
          <mxGeometry x="-0.0583" y="-3" relative="1" as="geometry">
            <mxPoint as="offset" />
          </mxGeometry>
        </mxCell>
        <mxCell id="SfsOYb53XxXa-xQl9RYC-145" value="add" style="rhombus;whiteSpace=wrap;html=1;" parent="1" vertex="1">
          <mxGeometry x="560" y="350" width="80" height="80" as="geometry" />
        </mxCell>
        <mxCell id="SfsOYb53XxXa-xQl9RYC-146" style="edgeStyle=orthogonalEdgeStyle;rounded=0;orthogonalLoop=1;jettySize=auto;html=1;exitX=1;exitY=0.5;exitDx=0;exitDy=0;" parent="1" source="SfsOYb53XxXa-xQl9RYC-147" target="SfsOYb53XxXa-xQl9RYC-148" edge="1">
          <mxGeometry relative="1" as="geometry">
            <mxPoint x="710" y="510" as="targetPoint" />
          </mxGeometry>
        </mxCell>
        <mxCell id="SfsOYb53XxXa-xQl9RYC-147" value="insert employee project in DataBase" style="rounded=1;whiteSpace=wrap;html=1;" parent="1" vertex="1">
          <mxGeometry x="540" y="480" width="120" height="60" as="geometry" />
        </mxCell>
        <mxCell id="SfsOYb53XxXa-xQl9RYC-148" value="return menu&amp;nbsp; Manager" style="rounded=1;whiteSpace=wrap;html=1;" parent="1" vertex="1">
          <mxGeometry x="720" y="480" width="120" height="60" as="geometry" />
        </mxCell>
        <mxCell id="SfsOYb53XxXa-xQl9RYC-149" style="edgeStyle=orthogonalEdgeStyle;rounded=0;orthogonalLoop=1;jettySize=auto;html=1;exitX=0.5;exitY=1;exitDx=0;exitDy=0;entryX=0.5;entryY=0;entryDx=0;entryDy=0;" parent="1" source="SfsOYb53XxXa-xQl9RYC-150" target="SfsOYb53XxXa-xQl9RYC-148" edge="1">
          <mxGeometry relative="1" as="geometry" />
        </mxCell>
        <mxCell id="SfsOYb53XxXa-xQl9RYC-150" value="Exception errors" style="rounded=1;whiteSpace=wrap;html=1;" parent="1" vertex="1">
          <mxGeometry x="720" y="360" width="120" height="60" as="geometry" />
        </mxCell>
        <mxCell id="SfsOYb53XxXa-xQl9RYC-170" style="edgeStyle=orthogonalEdgeStyle;rounded=0;orthogonalLoop=1;jettySize=auto;html=1;exitX=0.5;exitY=1;exitDx=0;exitDy=0;entryX=0.5;entryY=0;entryDx=0;entryDy=0;" parent="1" source="SfsOYb53XxXa-xQl9RYC-158" target="SfsOYb53XxXa-xQl9RYC-164" edge="1">
          <mxGeometry relative="1" as="geometry" />
        </mxCell>
        <mxCell id="SfsOYb53XxXa-xQl9RYC-158" value="Update EmployeeProject" style="rounded=1;whiteSpace=wrap;html=1;" parent="1" vertex="1">
          <mxGeometry x="1000" y="250" width="120" height="60" as="geometry" />
        </mxCell>
        <mxCell id="SfsOYb53XxXa-xQl9RYC-160" value="" style="edgeStyle=orthogonalEdgeStyle;rounded=0;orthogonalLoop=1;jettySize=auto;html=1;" parent="1" source="SfsOYb53XxXa-xQl9RYC-164" target="SfsOYb53XxXa-xQl9RYC-166" edge="1">
          <mxGeometry relative="1" as="geometry" />
        </mxCell>
        <mxCell id="SfsOYb53XxXa-xQl9RYC-161" value="no" style="edgeLabel;html=1;align=center;verticalAlign=middle;resizable=0;points=[];" parent="SfsOYb53XxXa-xQl9RYC-160" vertex="1" connectable="0">
          <mxGeometry x="-0.2333" y="1" relative="1" as="geometry">
            <mxPoint as="offset" />
          </mxGeometry>
        </mxCell>
        <mxCell id="SfsOYb53XxXa-xQl9RYC-162" style="edgeStyle=orthogonalEdgeStyle;rounded=0;orthogonalLoop=1;jettySize=auto;html=1;entryX=0.5;entryY=0;entryDx=0;entryDy=0;" parent="1" source="SfsOYb53XxXa-xQl9RYC-164" target="SfsOYb53XxXa-xQl9RYC-168" edge="1">
          <mxGeometry relative="1" as="geometry" />
        </mxCell>
        <mxCell id="SfsOYb53XxXa-xQl9RYC-163" value="yes" style="edgeLabel;html=1;align=center;verticalAlign=middle;resizable=0;points=[];" parent="SfsOYb53XxXa-xQl9RYC-162" vertex="1" connectable="0">
          <mxGeometry x="-0.0833" y="-2" relative="1" as="geometry">
            <mxPoint as="offset" />
          </mxGeometry>
        </mxCell>
        <mxCell id="SfsOYb53XxXa-xQl9RYC-164" value="Update" style="rhombus;whiteSpace=wrap;html=1;" parent="1" vertex="1">
          <mxGeometry x="1020" y="350" width="80" height="80" as="geometry" />
        </mxCell>
        <mxCell id="SfsOYb53XxXa-xQl9RYC-165" style="edgeStyle=orthogonalEdgeStyle;rounded=0;orthogonalLoop=1;jettySize=auto;html=1;entryX=0.5;entryY=0;entryDx=0;entryDy=0;" parent="1" source="SfsOYb53XxXa-xQl9RYC-166" target="SfsOYb53XxXa-xQl9RYC-169" edge="1">
          <mxGeometry relative="1" as="geometry" />
        </mxCell>
        <mxCell id="SfsOYb53XxXa-xQl9RYC-166" value="Exception errors" style="rounded=1;whiteSpace=wrap;html=1;" parent="1" vertex="1">
          <mxGeometry x="850" y="360" width="120" height="60" as="geometry" />
        </mxCell>
        <mxCell id="SfsOYb53XxXa-xQl9RYC-167" style="edgeStyle=orthogonalEdgeStyle;rounded=0;orthogonalLoop=1;jettySize=auto;html=1;exitX=0;exitY=0.5;exitDx=0;exitDy=0;entryX=1;entryY=0.5;entryDx=0;entryDy=0;" parent="1" source="SfsOYb53XxXa-xQl9RYC-168" target="SfsOYb53XxXa-xQl9RYC-169" edge="1">
          <mxGeometry relative="1" as="geometry" />
        </mxCell>
        <mxCell id="SfsOYb53XxXa-xQl9RYC-168" value="Update employee project details from DataBase" style="rounded=1;whiteSpace=wrap;html=1;" parent="1" vertex="1">
          <mxGeometry x="1000" y="480" width="120" height="60" as="geometry" />
        </mxCell>
        <mxCell id="SfsOYb53XxXa-xQl9RYC-169" value="return menu&amp;nbsp; Manager" style="rounded=1;whiteSpace=wrap;html=1;" parent="1" vertex="1">
          <mxGeometry x="850" y="480" width="120" height="60" as="geometry" />
        </mxCell>
        <mxCell id="SfsOYb53XxXa-xQl9RYC-176" style="edgeStyle=orthogonalEdgeStyle;rounded=0;orthogonalLoop=1;jettySize=auto;html=1;exitX=0.5;exitY=1;exitDx=0;exitDy=0;entryX=0.5;entryY=0;entryDx=0;entryDy=0;" parent="1" source="SfsOYb53XxXa-xQl9RYC-171" target="SfsOYb53XxXa-xQl9RYC-175" edge="1">
          <mxGeometry relative="1" as="geometry" />
        </mxCell>
        <mxCell id="SfsOYb53XxXa-xQl9RYC-171" value="Delete Menu" style="rounded=1;whiteSpace=wrap;html=1;" parent="1" vertex="1">
          <mxGeometry x="1300" y="250" width="120" height="60" as="geometry" />
        </mxCell>
        <mxCell id="SfsOYb53XxXa-xQl9RYC-302" style="edgeStyle=orthogonalEdgeStyle;rounded=0;orthogonalLoop=1;jettySize=auto;html=1;exitX=0.5;exitY=1;exitDx=0;exitDy=0;entryX=0.5;entryY=0;entryDx=0;entryDy=0;" parent="1" source="SfsOYb53XxXa-xQl9RYC-172" target="SfsOYb53XxXa-xQl9RYC-301" edge="1">
          <mxGeometry relative="1" as="geometry" />
        </mxCell>
        <mxCell id="SfsOYb53XxXa-xQl9RYC-172" value="Search Menu" style="rounded=1;whiteSpace=wrap;html=1;" parent="1" vertex="1">
          <mxGeometry x="3450" y="230" width="120" height="60" as="geometry" />
        </mxCell>
        <mxCell id="SfsOYb53XxXa-xQl9RYC-214" style="edgeStyle=orthogonalEdgeStyle;rounded=0;orthogonalLoop=1;jettySize=auto;html=1;exitX=0;exitY=0.5;exitDx=0;exitDy=0;entryX=1;entryY=0.5;entryDx=0;entryDy=0;" parent="1" source="SfsOYb53XxXa-xQl9RYC-175" target="SfsOYb53XxXa-xQl9RYC-178" edge="1">
          <mxGeometry relative="1" as="geometry" />
        </mxCell>
        <mxCell id="SfsOYb53XxXa-xQl9RYC-215" value="3" style="edgeLabel;html=1;align=center;verticalAlign=middle;resizable=0;points=[];" parent="SfsOYb53XxXa-xQl9RYC-214" vertex="1" connectable="0">
          <mxGeometry x="-0.0789" y="-3" relative="1" as="geometry">
            <mxPoint x="1" as="offset" />
          </mxGeometry>
        </mxCell>
        <mxCell id="SfsOYb53XxXa-xQl9RYC-216" style="edgeStyle=orthogonalEdgeStyle;rounded=0;orthogonalLoop=1;jettySize=auto;html=1;exitX=0.5;exitY=1;exitDx=0;exitDy=0;entryX=0.5;entryY=0;entryDx=0;entryDy=0;" parent="1" source="SfsOYb53XxXa-xQl9RYC-175" target="SfsOYb53XxXa-xQl9RYC-218" edge="1">
          <mxGeometry relative="1" as="geometry">
            <mxPoint x="1230" y="550" as="targetPoint" />
          </mxGeometry>
        </mxCell>
        <mxCell id="SfsOYb53XxXa-xQl9RYC-217" style="edgeStyle=orthogonalEdgeStyle;rounded=0;orthogonalLoop=1;jettySize=auto;html=1;exitX=1;exitY=0.5;exitDx=0;exitDy=0;entryX=0.5;entryY=0;entryDx=0;entryDy=0;" parent="1" source="SfsOYb53XxXa-xQl9RYC-175" target="SfsOYb53XxXa-xQl9RYC-219" edge="1">
          <mxGeometry relative="1" as="geometry">
            <mxPoint x="1490" y="550" as="targetPoint" />
          </mxGeometry>
        </mxCell>
        <mxCell id="SfsOYb53XxXa-xQl9RYC-175" value="Choice" style="rhombus;whiteSpace=wrap;html=1;" parent="1" vertex="1">
          <mxGeometry x="1320" y="370" width="80" height="80" as="geometry" />
        </mxCell>
        <mxCell id="SfsOYb53XxXa-xQl9RYC-178" value="Exit menu delete&lt;br&gt;and return menu Manager" style="rounded=1;whiteSpace=wrap;html=1;" parent="1" vertex="1">
          <mxGeometry x="1130" y="380" width="120" height="60" as="geometry" />
        </mxCell>
        <mxCell id="SfsOYb53XxXa-xQl9RYC-202" style="edgeStyle=orthogonalEdgeStyle;rounded=0;orthogonalLoop=1;jettySize=auto;html=1;" parent="1" source="SfsOYb53XxXa-xQl9RYC-190" target="SfsOYb53XxXa-xQl9RYC-196" edge="1">
          <mxGeometry relative="1" as="geometry" />
        </mxCell>
        <mxCell id="SfsOYb53XxXa-xQl9RYC-190" value="Display Employee" style="rounded=1;whiteSpace=wrap;html=1;" parent="1" vertex="1">
          <mxGeometry x="1830" y="515" width="120" height="60" as="geometry" />
        </mxCell>
        <mxCell id="SfsOYb53XxXa-xQl9RYC-213" style="edgeStyle=orthogonalEdgeStyle;rounded=0;orthogonalLoop=1;jettySize=auto;html=1;entryX=0.5;entryY=0;entryDx=0;entryDy=0;" parent="1" source="SfsOYb53XxXa-xQl9RYC-191" target="SfsOYb53XxXa-xQl9RYC-207" edge="1">
          <mxGeometry relative="1" as="geometry" />
        </mxCell>
        <mxCell id="SfsOYb53XxXa-xQl9RYC-191" value="Display Employee Project" style="rounded=1;whiteSpace=wrap;html=1;" parent="1" vertex="1">
          <mxGeometry x="2140" y="515" width="120" height="60" as="geometry" />
        </mxCell>
        <mxCell id="SfsOYb53XxXa-xQl9RYC-192" style="edgeStyle=orthogonalEdgeStyle;rounded=0;orthogonalLoop=1;jettySize=auto;html=1;exitX=0.5;exitY=1;exitDx=0;exitDy=0;entryX=0.5;entryY=0;entryDx=0;entryDy=0;" parent="1" source="SfsOYb53XxXa-xQl9RYC-196" target="SfsOYb53XxXa-xQl9RYC-198" edge="1">
          <mxGeometry relative="1" as="geometry" />
        </mxCell>
        <mxCell id="SfsOYb53XxXa-xQl9RYC-193" value="yes" style="edgeLabel;html=1;align=center;verticalAlign=middle;resizable=0;points=[];" parent="SfsOYb53XxXa-xQl9RYC-192" vertex="1" connectable="0">
          <mxGeometry x="0.0667" y="-2" relative="1" as="geometry">
            <mxPoint as="offset" />
          </mxGeometry>
        </mxCell>
        <mxCell id="SfsOYb53XxXa-xQl9RYC-194" style="edgeStyle=orthogonalEdgeStyle;rounded=0;orthogonalLoop=1;jettySize=auto;html=1;exitX=0;exitY=0.5;exitDx=0;exitDy=0;entryX=1;entryY=0.5;entryDx=0;entryDy=0;" parent="1" source="SfsOYb53XxXa-xQl9RYC-196" target="SfsOYb53XxXa-xQl9RYC-201" edge="1">
          <mxGeometry relative="1" as="geometry" />
        </mxCell>
        <mxCell id="SfsOYb53XxXa-xQl9RYC-195" value="no" style="edgeLabel;html=1;align=center;verticalAlign=middle;resizable=0;points=[];" parent="SfsOYb53XxXa-xQl9RYC-194" vertex="1" connectable="0">
          <mxGeometry x="-0.1905" y="-4" relative="1" as="geometry">
            <mxPoint as="offset" />
          </mxGeometry>
        </mxCell>
        <mxCell id="SfsOYb53XxXa-xQl9RYC-196" value="find" style="rhombus;whiteSpace=wrap;html=1;" parent="1" vertex="1">
          <mxGeometry x="1850" y="625" width="80" height="80" as="geometry" />
        </mxCell>
        <mxCell id="SfsOYb53XxXa-xQl9RYC-197" style="edgeStyle=orthogonalEdgeStyle;rounded=0;orthogonalLoop=1;jettySize=auto;html=1;exitX=0;exitY=0.5;exitDx=0;exitDy=0;entryX=1;entryY=0.5;entryDx=0;entryDy=0;" parent="1" source="SfsOYb53XxXa-xQl9RYC-198" target="SfsOYb53XxXa-xQl9RYC-199" edge="1">
          <mxGeometry relative="1" as="geometry" />
        </mxCell>
        <mxCell id="SfsOYb53XxXa-xQl9RYC-198" value="Rerurn All Employee details from&amp;nbsp;DataBase" style="rounded=1;whiteSpace=wrap;html=1;" parent="1" vertex="1">
          <mxGeometry x="1830" y="754.9999999999999" width="120" height="60" as="geometry" />
        </mxCell>
        <mxCell id="SfsOYb53XxXa-xQl9RYC-199" value="return menu display" style="rounded=1;whiteSpace=wrap;html=1;" parent="1" vertex="1">
          <mxGeometry x="1660" y="754.9999999999999" width="120" height="60" as="geometry" />
        </mxCell>
        <mxCell id="SfsOYb53XxXa-xQl9RYC-200" style="edgeStyle=orthogonalEdgeStyle;rounded=0;orthogonalLoop=1;jettySize=auto;html=1;exitX=0.5;exitY=1;exitDx=0;exitDy=0;" parent="1" source="SfsOYb53XxXa-xQl9RYC-201" target="SfsOYb53XxXa-xQl9RYC-199" edge="1">
          <mxGeometry relative="1" as="geometry" />
        </mxCell>
        <mxCell id="SfsOYb53XxXa-xQl9RYC-201" value="Exception errors" style="rounded=1;whiteSpace=wrap;html=1;" parent="1" vertex="1">
          <mxGeometry x="1660" y="635" width="120" height="60" as="geometry" />
        </mxCell>
        <mxCell id="SfsOYb53XxXa-xQl9RYC-203" style="edgeStyle=orthogonalEdgeStyle;rounded=0;orthogonalLoop=1;jettySize=auto;html=1;exitX=0.5;exitY=1;exitDx=0;exitDy=0;entryX=0.5;entryY=0;entryDx=0;entryDy=0;" parent="1" source="SfsOYb53XxXa-xQl9RYC-207" target="SfsOYb53XxXa-xQl9RYC-209" edge="1">
          <mxGeometry relative="1" as="geometry" />
        </mxCell>
        <mxCell id="SfsOYb53XxXa-xQl9RYC-204" value="yes" style="edgeLabel;html=1;align=center;verticalAlign=middle;resizable=0;points=[];" parent="SfsOYb53XxXa-xQl9RYC-203" vertex="1" connectable="0">
          <mxGeometry x="0.0667" y="-2" relative="1" as="geometry">
            <mxPoint as="offset" />
          </mxGeometry>
        </mxCell>
        <mxCell id="SfsOYb53XxXa-xQl9RYC-205" style="edgeStyle=orthogonalEdgeStyle;rounded=0;orthogonalLoop=1;jettySize=auto;html=1;exitX=0;exitY=0.5;exitDx=0;exitDy=0;entryX=1;entryY=0.5;entryDx=0;entryDy=0;" parent="1" source="SfsOYb53XxXa-xQl9RYC-207" target="SfsOYb53XxXa-xQl9RYC-212" edge="1">
          <mxGeometry relative="1" as="geometry" />
        </mxCell>
        <mxCell id="SfsOYb53XxXa-xQl9RYC-206" value="no" style="edgeLabel;html=1;align=center;verticalAlign=middle;resizable=0;points=[];" parent="SfsOYb53XxXa-xQl9RYC-205" vertex="1" connectable="0">
          <mxGeometry x="-0.1905" y="-4" relative="1" as="geometry">
            <mxPoint as="offset" />
          </mxGeometry>
        </mxCell>
        <mxCell id="SfsOYb53XxXa-xQl9RYC-207" value="Find" style="rhombus;whiteSpace=wrap;html=1;" parent="1" vertex="1">
          <mxGeometry x="2160" y="625" width="80" height="80" as="geometry" />
        </mxCell>
        <mxCell id="SfsOYb53XxXa-xQl9RYC-208" style="edgeStyle=orthogonalEdgeStyle;rounded=0;orthogonalLoop=1;jettySize=auto;html=1;exitX=0;exitY=0.5;exitDx=0;exitDy=0;entryX=1;entryY=0.5;entryDx=0;entryDy=0;" parent="1" source="SfsOYb53XxXa-xQl9RYC-209" target="SfsOYb53XxXa-xQl9RYC-210" edge="1">
          <mxGeometry relative="1" as="geometry" />
        </mxCell>
        <mxCell id="SfsOYb53XxXa-xQl9RYC-209" value="Rerurn All Employee Project details&amp;nbsp; &amp;nbsp;&amp;nbsp;from&amp;nbsp;DataBase" style="rounded=1;whiteSpace=wrap;html=1;" parent="1" vertex="1">
          <mxGeometry x="2140" y="754.9999999999999" width="120" height="60" as="geometry" />
        </mxCell>
        <mxCell id="SfsOYb53XxXa-xQl9RYC-210" value="return menu Display" style="rounded=1;whiteSpace=wrap;html=1;" parent="1" vertex="1">
          <mxGeometry x="1970" y="754.9999999999999" width="120" height="60" as="geometry" />
        </mxCell>
        <mxCell id="SfsOYb53XxXa-xQl9RYC-211" style="edgeStyle=orthogonalEdgeStyle;rounded=0;orthogonalLoop=1;jettySize=auto;html=1;exitX=0.5;exitY=1;exitDx=0;exitDy=0;" parent="1" source="SfsOYb53XxXa-xQl9RYC-212" target="SfsOYb53XxXa-xQl9RYC-210" edge="1">
          <mxGeometry relative="1" as="geometry" />
        </mxCell>
        <mxCell id="SfsOYb53XxXa-xQl9RYC-212" value="Exception errors" style="rounded=1;whiteSpace=wrap;html=1;" parent="1" vertex="1">
          <mxGeometry x="1970" y="635" width="120" height="60" as="geometry" />
        </mxCell>
        <mxCell id="SfsOYb53XxXa-xQl9RYC-218" value="delete employee" style="rounded=1;whiteSpace=wrap;html=1;" parent="1" vertex="1">
          <mxGeometry x="1180" y="530" width="120" height="60" as="geometry" />
        </mxCell>
        <mxCell id="SfsOYb53XxXa-xQl9RYC-252" style="edgeStyle=orthogonalEdgeStyle;rounded=0;orthogonalLoop=1;jettySize=auto;html=1;exitX=0.5;exitY=1;exitDx=0;exitDy=0;" parent="1" source="SfsOYb53XxXa-xQl9RYC-219" target="SfsOYb53XxXa-xQl9RYC-246" edge="1">
          <mxGeometry relative="1" as="geometry" />
        </mxCell>
        <mxCell id="SfsOYb53XxXa-xQl9RYC-219" value="delete Employee project" style="rounded=1;whiteSpace=wrap;html=1;" parent="1" vertex="1">
          <mxGeometry x="1520" y="530" width="120" height="60" as="geometry" />
        </mxCell>
        <mxCell id="SfsOYb53XxXa-xQl9RYC-220" style="edgeStyle=orthogonalEdgeStyle;rounded=0;orthogonalLoop=1;jettySize=auto;html=1;exitX=0.5;exitY=1;exitDx=0;exitDy=0;" parent="1" source="SfsOYb53XxXa-xQl9RYC-218" target="SfsOYb53XxXa-xQl9RYC-225" edge="1">
          <mxGeometry relative="1" as="geometry">
            <mxPoint x="1240" y="618" as="sourcePoint" />
          </mxGeometry>
        </mxCell>
        <mxCell id="SfsOYb53XxXa-xQl9RYC-221" style="edgeStyle=orthogonalEdgeStyle;rounded=0;orthogonalLoop=1;jettySize=auto;html=1;exitX=0.5;exitY=1;exitDx=0;exitDy=0;entryX=0.5;entryY=0;entryDx=0;entryDy=0;" parent="1" source="SfsOYb53XxXa-xQl9RYC-225" target="SfsOYb53XxXa-xQl9RYC-227" edge="1">
          <mxGeometry relative="1" as="geometry" />
        </mxCell>
        <mxCell id="SfsOYb53XxXa-xQl9RYC-222" value="yes" style="edgeLabel;html=1;align=center;verticalAlign=middle;resizable=0;points=[];" parent="SfsOYb53XxXa-xQl9RYC-221" vertex="1" connectable="0">
          <mxGeometry x="0.0667" y="-2" relative="1" as="geometry">
            <mxPoint as="offset" />
          </mxGeometry>
        </mxCell>
        <mxCell id="SfsOYb53XxXa-xQl9RYC-223" style="edgeStyle=orthogonalEdgeStyle;rounded=0;orthogonalLoop=1;jettySize=auto;html=1;exitX=0;exitY=0.5;exitDx=0;exitDy=0;entryX=1;entryY=0.5;entryDx=0;entryDy=0;" parent="1" source="SfsOYb53XxXa-xQl9RYC-225" target="SfsOYb53XxXa-xQl9RYC-230" edge="1">
          <mxGeometry relative="1" as="geometry" />
        </mxCell>
        <mxCell id="SfsOYb53XxXa-xQl9RYC-224" value="no" style="edgeLabel;html=1;align=center;verticalAlign=middle;resizable=0;points=[];" parent="SfsOYb53XxXa-xQl9RYC-223" vertex="1" connectable="0">
          <mxGeometry x="-0.1905" y="-4" relative="1" as="geometry">
            <mxPoint as="offset" />
          </mxGeometry>
        </mxCell>
        <mxCell id="SfsOYb53XxXa-xQl9RYC-225" value="delete" style="rhombus;whiteSpace=wrap;html=1;" parent="1" vertex="1">
          <mxGeometry x="1200" y="620" width="80" height="80" as="geometry" />
        </mxCell>
        <mxCell id="SfsOYb53XxXa-xQl9RYC-226" style="edgeStyle=orthogonalEdgeStyle;rounded=0;orthogonalLoop=1;jettySize=auto;html=1;exitX=0;exitY=0.5;exitDx=0;exitDy=0;entryX=1;entryY=0.5;entryDx=0;entryDy=0;" parent="1" source="SfsOYb53XxXa-xQl9RYC-227" target="SfsOYb53XxXa-xQl9RYC-228" edge="1">
          <mxGeometry relative="1" as="geometry" />
        </mxCell>
        <mxCell id="SfsOYb53XxXa-xQl9RYC-227" value="delete Employee where id from DataBase" style="rounded=1;whiteSpace=wrap;html=1;" parent="1" vertex="1">
          <mxGeometry x="1180" y="749.9999999999999" width="120" height="60" as="geometry" />
        </mxCell>
        <mxCell id="SfsOYb53XxXa-xQl9RYC-228" value="return menu delete" style="rounded=1;whiteSpace=wrap;html=1;" parent="1" vertex="1">
          <mxGeometry x="1010" y="749.9999999999999" width="120" height="60" as="geometry" />
        </mxCell>
        <mxCell id="SfsOYb53XxXa-xQl9RYC-229" style="edgeStyle=orthogonalEdgeStyle;rounded=0;orthogonalLoop=1;jettySize=auto;html=1;exitX=0.5;exitY=1;exitDx=0;exitDy=0;" parent="1" source="SfsOYb53XxXa-xQl9RYC-230" target="SfsOYb53XxXa-xQl9RYC-228" edge="1">
          <mxGeometry relative="1" as="geometry" />
        </mxCell>
        <mxCell id="SfsOYb53XxXa-xQl9RYC-230" value="Exception errors" style="rounded=1;whiteSpace=wrap;html=1;" parent="1" vertex="1">
          <mxGeometry x="1010" y="630" width="120" height="60" as="geometry" />
        </mxCell>
        <mxCell id="SfsOYb53XxXa-xQl9RYC-242" style="edgeStyle=orthogonalEdgeStyle;rounded=0;orthogonalLoop=1;jettySize=auto;html=1;exitX=0.5;exitY=1;exitDx=0;exitDy=0;entryX=0.5;entryY=0;entryDx=0;entryDy=0;" parent="1" source="SfsOYb53XxXa-xQl9RYC-246" target="SfsOYb53XxXa-xQl9RYC-248" edge="1">
          <mxGeometry relative="1" as="geometry" />
        </mxCell>
        <mxCell id="SfsOYb53XxXa-xQl9RYC-243" value="yes" style="edgeLabel;html=1;align=center;verticalAlign=middle;resizable=0;points=[];" parent="SfsOYb53XxXa-xQl9RYC-242" vertex="1" connectable="0">
          <mxGeometry x="0.0667" y="-2" relative="1" as="geometry">
            <mxPoint as="offset" />
          </mxGeometry>
        </mxCell>
        <mxCell id="SfsOYb53XxXa-xQl9RYC-244" style="edgeStyle=orthogonalEdgeStyle;rounded=0;orthogonalLoop=1;jettySize=auto;html=1;exitX=0;exitY=0.5;exitDx=0;exitDy=0;entryX=1;entryY=0.5;entryDx=0;entryDy=0;" parent="1" source="SfsOYb53XxXa-xQl9RYC-246" target="SfsOYb53XxXa-xQl9RYC-251" edge="1">
          <mxGeometry relative="1" as="geometry" />
        </mxCell>
        <mxCell id="SfsOYb53XxXa-xQl9RYC-245" value="no" style="edgeLabel;html=1;align=center;verticalAlign=middle;resizable=0;points=[];" parent="SfsOYb53XxXa-xQl9RYC-244" vertex="1" connectable="0">
          <mxGeometry x="-0.1905" y="-4" relative="1" as="geometry">
            <mxPoint as="offset" />
          </mxGeometry>
        </mxCell>
        <mxCell id="SfsOYb53XxXa-xQl9RYC-246" value="delete" style="rhombus;whiteSpace=wrap;html=1;" parent="1" vertex="1">
          <mxGeometry x="1540" y="625" width="80" height="80" as="geometry" />
        </mxCell>
        <mxCell id="SfsOYb53XxXa-xQl9RYC-247" style="edgeStyle=orthogonalEdgeStyle;rounded=0;orthogonalLoop=1;jettySize=auto;html=1;exitX=0;exitY=0.5;exitDx=0;exitDy=0;entryX=1;entryY=0.5;entryDx=0;entryDy=0;" parent="1" source="SfsOYb53XxXa-xQl9RYC-248" target="SfsOYb53XxXa-xQl9RYC-249" edge="1">
          <mxGeometry relative="1" as="geometry" />
        </mxCell>
        <mxCell id="SfsOYb53XxXa-xQl9RYC-248" value="delete Employee project where id from DataBase" style="rounded=1;whiteSpace=wrap;html=1;" parent="1" vertex="1">
          <mxGeometry x="1520" y="754.9999999999999" width="120" height="60" as="geometry" />
        </mxCell>
        <mxCell id="SfsOYb53XxXa-xQl9RYC-249" value="return menu delete" style="rounded=1;whiteSpace=wrap;html=1;" parent="1" vertex="1">
          <mxGeometry x="1360" y="754.9999999999999" width="120" height="60" as="geometry" />
        </mxCell>
        <mxCell id="SfsOYb53XxXa-xQl9RYC-250" style="edgeStyle=orthogonalEdgeStyle;rounded=0;orthogonalLoop=1;jettySize=auto;html=1;exitX=0.5;exitY=1;exitDx=0;exitDy=0;" parent="1" source="SfsOYb53XxXa-xQl9RYC-251" target="SfsOYb53XxXa-xQl9RYC-249" edge="1">
          <mxGeometry relative="1" as="geometry" />
        </mxCell>
        <mxCell id="SfsOYb53XxXa-xQl9RYC-251" value="Exception errors" style="rounded=1;whiteSpace=wrap;html=1;" parent="1" vertex="1">
          <mxGeometry x="1360" y="635" width="120" height="60" as="geometry" />
        </mxCell>
        <mxCell id="SfsOYb53XxXa-xQl9RYC-262" style="edgeStyle=orthogonalEdgeStyle;rounded=0;orthogonalLoop=1;jettySize=auto;html=1;exitX=0.5;exitY=1;exitDx=0;exitDy=0;entryX=0.5;entryY=0;entryDx=0;entryDy=0;" parent="1" source="SfsOYb53XxXa-xQl9RYC-260" target="SfsOYb53XxXa-xQl9RYC-261" edge="1">
          <mxGeometry relative="1" as="geometry" />
        </mxCell>
        <mxCell id="SfsOYb53XxXa-xQl9RYC-260" value="&lt;div&gt;&lt;span style=&quot;background-color: initial;&quot;&gt;Display Menu&lt;/span&gt;&lt;br&gt;&lt;/div&gt;" style="rounded=1;whiteSpace=wrap;html=1;" parent="1" vertex="1">
          <mxGeometry x="2140" y="230" width="120" height="60" as="geometry" />
        </mxCell>
        <mxCell id="SfsOYb53XxXa-xQl9RYC-263" style="edgeStyle=orthogonalEdgeStyle;rounded=0;orthogonalLoop=1;jettySize=auto;html=1;exitX=0;exitY=0;exitDx=0;exitDy=0;entryX=0.5;entryY=1;entryDx=0;entryDy=0;" parent="1" source="SfsOYb53XxXa-xQl9RYC-261" target="SfsOYb53XxXa-xQl9RYC-299" edge="1">
          <mxGeometry relative="1" as="geometry">
            <mxPoint x="1910" y="270" as="targetPoint" />
          </mxGeometry>
        </mxCell>
        <mxCell id="SfsOYb53XxXa-xQl9RYC-265" style="edgeStyle=orthogonalEdgeStyle;rounded=0;orthogonalLoop=1;jettySize=auto;html=1;exitX=0.5;exitY=1;exitDx=0;exitDy=0;entryX=0.5;entryY=0;entryDx=0;entryDy=0;" parent="1" source="SfsOYb53XxXa-xQl9RYC-261" target="SfsOYb53XxXa-xQl9RYC-191" edge="1">
          <mxGeometry relative="1" as="geometry">
            <mxPoint x="2120" y="540" as="targetPoint" />
          </mxGeometry>
        </mxCell>
        <mxCell id="SfsOYb53XxXa-xQl9RYC-295" value="2" style="edgeLabel;html=1;align=center;verticalAlign=middle;resizable=0;points=[];" parent="SfsOYb53XxXa-xQl9RYC-265" vertex="1" connectable="0">
          <mxGeometry x="-0.037" y="-2" relative="1" as="geometry">
            <mxPoint y="-1" as="offset" />
          </mxGeometry>
        </mxCell>
        <mxCell id="SfsOYb53XxXa-xQl9RYC-266" style="edgeStyle=orthogonalEdgeStyle;rounded=0;orthogonalLoop=1;jettySize=auto;html=1;exitX=1;exitY=1;exitDx=0;exitDy=0;entryX=0.5;entryY=0;entryDx=0;entryDy=0;" parent="1" source="SfsOYb53XxXa-xQl9RYC-261" target="SfsOYb53XxXa-xQl9RYC-269" edge="1">
          <mxGeometry relative="1" as="geometry">
            <mxPoint x="2480" y="540" as="targetPoint" />
          </mxGeometry>
        </mxCell>
        <mxCell id="SfsOYb53XxXa-xQl9RYC-296" value="3" style="edgeLabel;html=1;align=center;verticalAlign=middle;resizable=0;points=[];" parent="SfsOYb53XxXa-xQl9RYC-266" vertex="1" connectable="0">
          <mxGeometry x="0.7304" y="-1" relative="1" as="geometry">
            <mxPoint y="-1" as="offset" />
          </mxGeometry>
        </mxCell>
        <mxCell id="SfsOYb53XxXa-xQl9RYC-293" style="edgeStyle=orthogonalEdgeStyle;rounded=0;orthogonalLoop=1;jettySize=auto;html=1;exitX=0;exitY=0.5;exitDx=0;exitDy=0;entryX=0.5;entryY=0;entryDx=0;entryDy=0;" parent="1" source="SfsOYb53XxXa-xQl9RYC-261" target="SfsOYb53XxXa-xQl9RYC-190" edge="1">
          <mxGeometry relative="1" as="geometry" />
        </mxCell>
        <mxCell id="SfsOYb53XxXa-xQl9RYC-294" value="1" style="edgeLabel;html=1;align=center;verticalAlign=middle;resizable=0;points=[];" parent="SfsOYb53XxXa-xQl9RYC-293" vertex="1" connectable="0">
          <mxGeometry x="0.8153" y="-1" relative="1" as="geometry">
            <mxPoint y="-1" as="offset" />
          </mxGeometry>
        </mxCell>
        <mxCell id="SfsOYb53XxXa-xQl9RYC-297" style="edgeStyle=orthogonalEdgeStyle;rounded=0;orthogonalLoop=1;jettySize=auto;html=1;exitX=1;exitY=0.5;exitDx=0;exitDy=0;" parent="1" source="SfsOYb53XxXa-xQl9RYC-261" target="SfsOYb53XxXa-xQl9RYC-281" edge="1">
          <mxGeometry relative="1" as="geometry" />
        </mxCell>
        <mxCell id="SfsOYb53XxXa-xQl9RYC-298" value="4" style="edgeLabel;html=1;align=center;verticalAlign=middle;resizable=0;points=[];" parent="SfsOYb53XxXa-xQl9RYC-297" vertex="1" connectable="0">
          <mxGeometry x="0.8767" y="-4" relative="1" as="geometry">
            <mxPoint y="-1" as="offset" />
          </mxGeometry>
        </mxCell>
        <mxCell id="SfsOYb53XxXa-xQl9RYC-261" value="Choice" style="rhombus;whiteSpace=wrap;html=1;" parent="1" vertex="1">
          <mxGeometry x="2160" y="360" width="80" height="80" as="geometry" />
        </mxCell>
        <mxCell id="SfsOYb53XxXa-xQl9RYC-268" style="edgeStyle=orthogonalEdgeStyle;rounded=0;orthogonalLoop=1;jettySize=auto;html=1;entryX=0.5;entryY=0;entryDx=0;entryDy=0;" parent="1" source="SfsOYb53XxXa-xQl9RYC-269" target="SfsOYb53XxXa-xQl9RYC-274" edge="1">
          <mxGeometry relative="1" as="geometry" />
        </mxCell>
        <mxCell id="SfsOYb53XxXa-xQl9RYC-269" value="Display Department" style="rounded=1;whiteSpace=wrap;html=1;" parent="1" vertex="1">
          <mxGeometry x="2440" y="515" width="120" height="60" as="geometry" />
        </mxCell>
        <mxCell id="SfsOYb53XxXa-xQl9RYC-270" style="edgeStyle=orthogonalEdgeStyle;rounded=0;orthogonalLoop=1;jettySize=auto;html=1;exitX=0.5;exitY=1;exitDx=0;exitDy=0;entryX=0.5;entryY=0;entryDx=0;entryDy=0;" parent="1" source="SfsOYb53XxXa-xQl9RYC-274" target="SfsOYb53XxXa-xQl9RYC-276" edge="1">
          <mxGeometry relative="1" as="geometry" />
        </mxCell>
        <mxCell id="SfsOYb53XxXa-xQl9RYC-271" value="yes" style="edgeLabel;html=1;align=center;verticalAlign=middle;resizable=0;points=[];" parent="SfsOYb53XxXa-xQl9RYC-270" vertex="1" connectable="0">
          <mxGeometry x="0.0667" y="-2" relative="1" as="geometry">
            <mxPoint as="offset" />
          </mxGeometry>
        </mxCell>
        <mxCell id="SfsOYb53XxXa-xQl9RYC-272" style="edgeStyle=orthogonalEdgeStyle;rounded=0;orthogonalLoop=1;jettySize=auto;html=1;exitX=0;exitY=0.5;exitDx=0;exitDy=0;entryX=1;entryY=0.5;entryDx=0;entryDy=0;" parent="1" source="SfsOYb53XxXa-xQl9RYC-274" target="SfsOYb53XxXa-xQl9RYC-279" edge="1">
          <mxGeometry relative="1" as="geometry" />
        </mxCell>
        <mxCell id="SfsOYb53XxXa-xQl9RYC-273" value="no" style="edgeLabel;html=1;align=center;verticalAlign=middle;resizable=0;points=[];" parent="SfsOYb53XxXa-xQl9RYC-272" vertex="1" connectable="0">
          <mxGeometry x="-0.1905" y="-4" relative="1" as="geometry">
            <mxPoint as="offset" />
          </mxGeometry>
        </mxCell>
        <mxCell id="SfsOYb53XxXa-xQl9RYC-274" value="Find" style="rhombus;whiteSpace=wrap;html=1;" parent="1" vertex="1">
          <mxGeometry x="2460" y="625" width="80" height="80" as="geometry" />
        </mxCell>
        <mxCell id="SfsOYb53XxXa-xQl9RYC-275" style="edgeStyle=orthogonalEdgeStyle;rounded=0;orthogonalLoop=1;jettySize=auto;html=1;exitX=0;exitY=0.5;exitDx=0;exitDy=0;entryX=1;entryY=0.5;entryDx=0;entryDy=0;" parent="1" source="SfsOYb53XxXa-xQl9RYC-276" target="SfsOYb53XxXa-xQl9RYC-277" edge="1">
          <mxGeometry relative="1" as="geometry" />
        </mxCell>
        <mxCell id="SfsOYb53XxXa-xQl9RYC-276" value="Rerurn All Department details&amp;nbsp;from DataBase" style="rounded=1;whiteSpace=wrap;html=1;" parent="1" vertex="1">
          <mxGeometry x="2440" y="754.9999999999999" width="120" height="60" as="geometry" />
        </mxCell>
        <mxCell id="SfsOYb53XxXa-xQl9RYC-277" value="return menu Display" style="rounded=1;whiteSpace=wrap;html=1;" parent="1" vertex="1">
          <mxGeometry x="2270" y="754.9999999999999" width="120" height="60" as="geometry" />
        </mxCell>
        <mxCell id="SfsOYb53XxXa-xQl9RYC-278" style="edgeStyle=orthogonalEdgeStyle;rounded=0;orthogonalLoop=1;jettySize=auto;html=1;exitX=0.5;exitY=1;exitDx=0;exitDy=0;" parent="1" source="SfsOYb53XxXa-xQl9RYC-279" target="SfsOYb53XxXa-xQl9RYC-277" edge="1">
          <mxGeometry relative="1" as="geometry" />
        </mxCell>
        <mxCell id="SfsOYb53XxXa-xQl9RYC-279" value="Exception errors" style="rounded=1;whiteSpace=wrap;html=1;" parent="1" vertex="1">
          <mxGeometry x="2270" y="635" width="120" height="60" as="geometry" />
        </mxCell>
        <mxCell id="SfsOYb53XxXa-xQl9RYC-280" style="edgeStyle=orthogonalEdgeStyle;rounded=0;orthogonalLoop=1;jettySize=auto;html=1;entryX=0.5;entryY=0;entryDx=0;entryDy=0;" parent="1" source="SfsOYb53XxXa-xQl9RYC-281" target="SfsOYb53XxXa-xQl9RYC-286" edge="1">
          <mxGeometry relative="1" as="geometry" />
        </mxCell>
        <mxCell id="SfsOYb53XxXa-xQl9RYC-281" value="Display Projects" style="rounded=1;whiteSpace=wrap;html=1;" parent="1" vertex="1">
          <mxGeometry x="2750" y="515" width="120" height="60" as="geometry" />
        </mxCell>
        <mxCell id="SfsOYb53XxXa-xQl9RYC-282" style="edgeStyle=orthogonalEdgeStyle;rounded=0;orthogonalLoop=1;jettySize=auto;html=1;exitX=0.5;exitY=1;exitDx=0;exitDy=0;entryX=0.5;entryY=0;entryDx=0;entryDy=0;" parent="1" source="SfsOYb53XxXa-xQl9RYC-286" target="SfsOYb53XxXa-xQl9RYC-288" edge="1">
          <mxGeometry relative="1" as="geometry" />
        </mxCell>
        <mxCell id="SfsOYb53XxXa-xQl9RYC-283" value="yes" style="edgeLabel;html=1;align=center;verticalAlign=middle;resizable=0;points=[];" parent="SfsOYb53XxXa-xQl9RYC-282" vertex="1" connectable="0">
          <mxGeometry x="0.0667" y="-2" relative="1" as="geometry">
            <mxPoint as="offset" />
          </mxGeometry>
        </mxCell>
        <mxCell id="SfsOYb53XxXa-xQl9RYC-284" style="edgeStyle=orthogonalEdgeStyle;rounded=0;orthogonalLoop=1;jettySize=auto;html=1;exitX=0;exitY=0.5;exitDx=0;exitDy=0;entryX=1;entryY=0.5;entryDx=0;entryDy=0;" parent="1" source="SfsOYb53XxXa-xQl9RYC-286" target="SfsOYb53XxXa-xQl9RYC-291" edge="1">
          <mxGeometry relative="1" as="geometry" />
        </mxCell>
        <mxCell id="SfsOYb53XxXa-xQl9RYC-285" value="no" style="edgeLabel;html=1;align=center;verticalAlign=middle;resizable=0;points=[];" parent="SfsOYb53XxXa-xQl9RYC-284" vertex="1" connectable="0">
          <mxGeometry x="-0.1905" y="-4" relative="1" as="geometry">
            <mxPoint as="offset" />
          </mxGeometry>
        </mxCell>
        <mxCell id="SfsOYb53XxXa-xQl9RYC-286" value="Find" style="rhombus;whiteSpace=wrap;html=1;" parent="1" vertex="1">
          <mxGeometry x="2770" y="625" width="80" height="80" as="geometry" />
        </mxCell>
        <mxCell id="SfsOYb53XxXa-xQl9RYC-287" style="edgeStyle=orthogonalEdgeStyle;rounded=0;orthogonalLoop=1;jettySize=auto;html=1;exitX=0;exitY=0.5;exitDx=0;exitDy=0;entryX=1;entryY=0.5;entryDx=0;entryDy=0;" parent="1" source="SfsOYb53XxXa-xQl9RYC-288" target="SfsOYb53XxXa-xQl9RYC-289" edge="1">
          <mxGeometry relative="1" as="geometry" />
        </mxCell>
        <mxCell id="SfsOYb53XxXa-xQl9RYC-288" value="Rerurn All Project details from DataBase" style="rounded=1;whiteSpace=wrap;html=1;" parent="1" vertex="1">
          <mxGeometry x="2750" y="754.9999999999999" width="120" height="60" as="geometry" />
        </mxCell>
        <mxCell id="SfsOYb53XxXa-xQl9RYC-289" value="return menu Display" style="rounded=1;whiteSpace=wrap;html=1;" parent="1" vertex="1">
          <mxGeometry x="2580" y="754.9999999999999" width="120" height="60" as="geometry" />
        </mxCell>
        <mxCell id="SfsOYb53XxXa-xQl9RYC-290" style="edgeStyle=orthogonalEdgeStyle;rounded=0;orthogonalLoop=1;jettySize=auto;html=1;exitX=0.5;exitY=1;exitDx=0;exitDy=0;" parent="1" source="SfsOYb53XxXa-xQl9RYC-291" target="SfsOYb53XxXa-xQl9RYC-289" edge="1">
          <mxGeometry relative="1" as="geometry" />
        </mxCell>
        <mxCell id="SfsOYb53XxXa-xQl9RYC-291" value="Exception errors" style="rounded=1;whiteSpace=wrap;html=1;" parent="1" vertex="1">
          <mxGeometry x="2580" y="635" width="120" height="60" as="geometry" />
        </mxCell>
        <mxCell id="SfsOYb53XxXa-xQl9RYC-299" value="Exit and return menu Manager" style="rounded=1;whiteSpace=wrap;html=1;" parent="1" vertex="1">
          <mxGeometry x="1860" y="230" width="120" height="60" as="geometry" />
        </mxCell>
        <mxCell id="SfsOYb53XxXa-xQl9RYC-300" value="Exit and return menu Manager" style="rounded=1;whiteSpace=wrap;html=1;" parent="1" vertex="1">
          <mxGeometry x="3190" y="230" width="120" height="60" as="geometry" />
        </mxCell>
        <mxCell id="SfsOYb53XxXa-xQl9RYC-305" style="edgeStyle=orthogonalEdgeStyle;rounded=0;orthogonalLoop=1;jettySize=auto;html=1;exitX=0;exitY=0.5;exitDx=0;exitDy=0;entryX=0.5;entryY=0;entryDx=0;entryDy=0;" parent="1" source="SfsOYb53XxXa-xQl9RYC-301" target="SfsOYb53XxXa-xQl9RYC-324" edge="1">
          <mxGeometry relative="1" as="geometry">
            <mxPoint x="3110" y="520" as="targetPoint" />
          </mxGeometry>
        </mxCell>
        <mxCell id="SfsOYb53XxXa-xQl9RYC-306" value="1" style="edgeLabel;html=1;align=center;verticalAlign=middle;resizable=0;points=[];" parent="SfsOYb53XxXa-xQl9RYC-305" vertex="1" connectable="0">
          <mxGeometry x="0.8314" y="2" relative="1" as="geometry">
            <mxPoint as="offset" />
          </mxGeometry>
        </mxCell>
        <mxCell id="SfsOYb53XxXa-xQl9RYC-307" style="edgeStyle=orthogonalEdgeStyle;rounded=0;orthogonalLoop=1;jettySize=auto;html=1;exitX=0.164;exitY=0.639;exitDx=0;exitDy=0;exitPerimeter=0;entryX=0.5;entryY=0;entryDx=0;entryDy=0;" parent="1" source="SfsOYb53XxXa-xQl9RYC-301" target="SfsOYb53XxXa-xQl9RYC-326" edge="1">
          <mxGeometry relative="1" as="geometry">
            <mxPoint x="3290" y="600" as="targetPoint" />
          </mxGeometry>
        </mxCell>
        <mxCell id="SfsOYb53XxXa-xQl9RYC-308" value="2" style="edgeLabel;html=1;align=center;verticalAlign=middle;resizable=0;points=[];" parent="SfsOYb53XxXa-xQl9RYC-307" vertex="1" connectable="0">
          <mxGeometry x="0.7586" y="-5" relative="1" as="geometry">
            <mxPoint as="offset" />
          </mxGeometry>
        </mxCell>
        <mxCell id="SfsOYb53XxXa-xQl9RYC-309" style="edgeStyle=orthogonalEdgeStyle;rounded=0;orthogonalLoop=1;jettySize=auto;html=1;exitX=0.359;exitY=0.853;exitDx=0;exitDy=0;exitPerimeter=0;entryX=0.5;entryY=0;entryDx=0;entryDy=0;" parent="1" source="SfsOYb53XxXa-xQl9RYC-301" target="SfsOYb53XxXa-xQl9RYC-329" edge="1">
          <mxGeometry relative="1" as="geometry">
            <mxPoint x="3570" y="570" as="targetPoint" />
          </mxGeometry>
        </mxCell>
        <mxCell id="SfsOYb53XxXa-xQl9RYC-310" value="3" style="edgeLabel;html=1;align=center;verticalAlign=middle;resizable=0;points=[];" parent="SfsOYb53XxXa-xQl9RYC-309" vertex="1" connectable="0">
          <mxGeometry x="0.3055" y="-4" relative="1" as="geometry">
            <mxPoint as="offset" />
          </mxGeometry>
        </mxCell>
        <mxCell id="SfsOYb53XxXa-xQl9RYC-313" style="edgeStyle=orthogonalEdgeStyle;rounded=0;orthogonalLoop=1;jettySize=auto;html=1;exitX=1;exitY=0.5;exitDx=0;exitDy=0;" parent="1" source="SfsOYb53XxXa-xQl9RYC-301" target="SfsOYb53XxXa-xQl9RYC-328" edge="1">
          <mxGeometry relative="1" as="geometry">
            <mxPoint x="3720" y="560" as="targetPoint" />
          </mxGeometry>
        </mxCell>
        <mxCell id="SfsOYb53XxXa-xQl9RYC-314" value="5" style="edgeLabel;html=1;align=center;verticalAlign=middle;resizable=0;points=[];" parent="SfsOYb53XxXa-xQl9RYC-313" vertex="1" connectable="0">
          <mxGeometry x="0.8272" y="-2" relative="1" as="geometry">
            <mxPoint as="offset" />
          </mxGeometry>
        </mxCell>
        <mxCell id="SfsOYb53XxXa-xQl9RYC-315" style="edgeStyle=orthogonalEdgeStyle;rounded=0;orthogonalLoop=1;jettySize=auto;html=1;exitX=0.633;exitY=0.117;exitDx=0;exitDy=0;exitPerimeter=0;entryX=0.5;entryY=0;entryDx=0;entryDy=0;" parent="1" source="SfsOYb53XxXa-xQl9RYC-301" target="SfsOYb53XxXa-xQl9RYC-331" edge="1">
          <mxGeometry relative="1" as="geometry">
            <mxPoint x="4820" y="490" as="targetPoint" />
          </mxGeometry>
        </mxCell>
        <mxCell id="SfsOYb53XxXa-xQl9RYC-316" value="7" style="edgeLabel;html=1;align=center;verticalAlign=middle;resizable=0;points=[];" parent="SfsOYb53XxXa-xQl9RYC-315" vertex="1" connectable="0">
          <mxGeometry x="0.8902" relative="1" as="geometry">
            <mxPoint as="offset" />
          </mxGeometry>
        </mxCell>
        <mxCell id="SfsOYb53XxXa-xQl9RYC-320" style="edgeStyle=orthogonalEdgeStyle;rounded=0;orthogonalLoop=1;jettySize=auto;html=1;exitX=0;exitY=0;exitDx=0;exitDy=0;entryX=0.5;entryY=1;entryDx=0;entryDy=0;" parent="1" source="SfsOYb53XxXa-xQl9RYC-301" target="SfsOYb53XxXa-xQl9RYC-300" edge="1">
          <mxGeometry relative="1" as="geometry">
            <Array as="points">
              <mxPoint x="3488" y="340" />
              <mxPoint x="3250" y="340" />
            </Array>
          </mxGeometry>
        </mxCell>
        <mxCell id="SfsOYb53XxXa-xQl9RYC-321" value="8" style="edgeLabel;html=1;align=center;verticalAlign=middle;resizable=0;points=[];" parent="SfsOYb53XxXa-xQl9RYC-320" vertex="1" connectable="0">
          <mxGeometry x="0.8454" y="-1" relative="1" as="geometry">
            <mxPoint as="offset" />
          </mxGeometry>
        </mxCell>
        <mxCell id="SfsOYb53XxXa-xQl9RYC-322" style="edgeStyle=orthogonalEdgeStyle;rounded=0;orthogonalLoop=1;jettySize=auto;html=1;exitX=1;exitY=0;exitDx=0;exitDy=0;" parent="1" source="SfsOYb53XxXa-xQl9RYC-301" target="SfsOYb53XxXa-xQl9RYC-330" edge="1">
          <mxGeometry relative="1" as="geometry">
            <mxPoint x="3910" y="550" as="targetPoint" />
          </mxGeometry>
        </mxCell>
        <mxCell id="SfsOYb53XxXa-xQl9RYC-323" value="6" style="edgeLabel;html=1;align=center;verticalAlign=middle;resizable=0;points=[];" parent="SfsOYb53XxXa-xQl9RYC-322" vertex="1" connectable="0">
          <mxGeometry x="0.7449" y="-1" relative="1" as="geometry">
            <mxPoint y="-1" as="offset" />
          </mxGeometry>
        </mxCell>
        <mxCell id="SfsOYb53XxXa-xQl9RYC-389" style="edgeStyle=orthogonalEdgeStyle;rounded=0;orthogonalLoop=1;jettySize=auto;html=1;exitX=1;exitY=1;exitDx=0;exitDy=0;" parent="1" source="SfsOYb53XxXa-xQl9RYC-301" target="SfsOYb53XxXa-xQl9RYC-327" edge="1">
          <mxGeometry relative="1" as="geometry" />
        </mxCell>
        <mxCell id="SfsOYb53XxXa-xQl9RYC-390" value="4" style="edgeLabel;html=1;align=center;verticalAlign=middle;resizable=0;points=[];" parent="SfsOYb53XxXa-xQl9RYC-389" vertex="1" connectable="0">
          <mxGeometry x="0.8601" y="3" relative="1" as="geometry">
            <mxPoint as="offset" />
          </mxGeometry>
        </mxCell>
        <mxCell id="SfsOYb53XxXa-xQl9RYC-301" value="Choice" style="rhombus;whiteSpace=wrap;html=1;" parent="1" vertex="1">
          <mxGeometry x="3440" y="355" width="190" height="160" as="geometry" />
        </mxCell>
        <mxCell id="SfsOYb53XxXa-xQl9RYC-362" style="edgeStyle=orthogonalEdgeStyle;rounded=0;orthogonalLoop=1;jettySize=auto;html=1;entryX=0.5;entryY=0;entryDx=0;entryDy=0;" parent="1" source="SfsOYb53XxXa-xQl9RYC-324" target="SfsOYb53XxXa-xQl9RYC-336" edge="1">
          <mxGeometry relative="1" as="geometry" />
        </mxCell>
        <mxCell id="SfsOYb53XxXa-xQl9RYC-324" value="Search Employee By ID" style="rounded=1;whiteSpace=wrap;html=1;" parent="1" vertex="1">
          <mxGeometry x="3050" y="520" width="120" height="60" as="geometry" />
        </mxCell>
        <mxCell id="SfsOYb53XxXa-xQl9RYC-387" style="edgeStyle=orthogonalEdgeStyle;rounded=0;orthogonalLoop=1;jettySize=auto;html=1;entryX=0.5;entryY=0;entryDx=0;entryDy=0;" parent="1" source="SfsOYb53XxXa-xQl9RYC-326" target="SfsOYb53XxXa-xQl9RYC-356" edge="1">
          <mxGeometry relative="1" as="geometry" />
        </mxCell>
        <mxCell id="SfsOYb53XxXa-xQl9RYC-326" value="&amp;nbsp;Search Employee Project By ID" style="rounded=1;whiteSpace=wrap;html=1;" parent="1" vertex="1">
          <mxGeometry x="3203.87" y="520" width="120" height="60" as="geometry" />
        </mxCell>
        <mxCell id="SfsOYb53XxXa-xQl9RYC-411" style="edgeStyle=orthogonalEdgeStyle;rounded=0;orthogonalLoop=1;jettySize=auto;html=1;exitX=0.5;exitY=1;exitDx=0;exitDy=0;entryX=0.5;entryY=0;entryDx=0;entryDy=0;" parent="1" source="SfsOYb53XxXa-xQl9RYC-327" target="SfsOYb53XxXa-xQl9RYC-405" edge="1">
          <mxGeometry relative="1" as="geometry" />
        </mxCell>
        <mxCell id="SfsOYb53XxXa-xQl9RYC-327" value="Search Department By ID" style="rounded=1;whiteSpace=wrap;html=1;" parent="1" vertex="1">
          <mxGeometry x="3780" y="550" width="120" height="60" as="geometry" />
        </mxCell>
        <mxCell id="SfsOYb53XxXa-xQl9RYC-452" style="edgeStyle=orthogonalEdgeStyle;rounded=0;orthogonalLoop=1;jettySize=auto;html=1;exitX=0.5;exitY=1;exitDx=0;exitDy=0;" parent="1" source="SfsOYb53XxXa-xQl9RYC-328" target="SfsOYb53XxXa-xQl9RYC-426" edge="1">
          <mxGeometry relative="1" as="geometry" />
        </mxCell>
        <mxCell id="SfsOYb53XxXa-xQl9RYC-328" value="Search Employee By Department ID" style="rounded=1;whiteSpace=wrap;html=1;" parent="1" vertex="1">
          <mxGeometry x="4070" y="550" width="120" height="60" as="geometry" />
        </mxCell>
        <mxCell id="SfsOYb53XxXa-xQl9RYC-388" style="edgeStyle=orthogonalEdgeStyle;rounded=0;orthogonalLoop=1;jettySize=auto;html=1;exitX=0.5;exitY=1;exitDx=0;exitDy=0;" parent="1" source="SfsOYb53XxXa-xQl9RYC-329" target="SfsOYb53XxXa-xQl9RYC-371" edge="1">
          <mxGeometry relative="1" as="geometry" />
        </mxCell>
        <mxCell id="SfsOYb53XxXa-xQl9RYC-329" value="Search Project By ID" style="rounded=1;whiteSpace=wrap;html=1;" parent="1" vertex="1">
          <mxGeometry x="3490" y="550" width="120" height="60" as="geometry" />
        </mxCell>
        <mxCell id="SfsOYb53XxXa-xQl9RYC-453" style="edgeStyle=orthogonalEdgeStyle;rounded=0;orthogonalLoop=1;jettySize=auto;html=1;exitX=0.5;exitY=1;exitDx=0;exitDy=0;" parent="1" source="SfsOYb53XxXa-xQl9RYC-330" target="SfsOYb53XxXa-xQl9RYC-436" edge="1">
          <mxGeometry relative="1" as="geometry" />
        </mxCell>
        <mxCell id="SfsOYb53XxXa-xQl9RYC-330" value="Search Employee Project Join Project By Employee ID" style="rounded=1;whiteSpace=wrap;html=1;" parent="1" vertex="1">
          <mxGeometry x="4350" y="550" width="120" height="60" as="geometry" />
        </mxCell>
        <mxCell id="SfsOYb53XxXa-xQl9RYC-454" style="edgeStyle=orthogonalEdgeStyle;rounded=0;orthogonalLoop=1;jettySize=auto;html=1;" parent="1" source="SfsOYb53XxXa-xQl9RYC-331" target="SfsOYb53XxXa-xQl9RYC-446" edge="1">
          <mxGeometry relative="1" as="geometry" />
        </mxCell>
        <mxCell id="SfsOYb53XxXa-xQl9RYC-331" value="Search Employee Project Join Employee By Project ID" style="rounded=1;whiteSpace=wrap;html=1;" parent="1" vertex="1">
          <mxGeometry x="4640" y="550" width="120" height="60" as="geometry" />
        </mxCell>
        <mxCell id="SfsOYb53XxXa-xQl9RYC-332" style="edgeStyle=orthogonalEdgeStyle;rounded=0;orthogonalLoop=1;jettySize=auto;html=1;exitX=0.5;exitY=1;exitDx=0;exitDy=0;entryX=0.5;entryY=0;entryDx=0;entryDy=0;" parent="1" source="SfsOYb53XxXa-xQl9RYC-336" target="SfsOYb53XxXa-xQl9RYC-338" edge="1">
          <mxGeometry relative="1" as="geometry" />
        </mxCell>
        <mxCell id="SfsOYb53XxXa-xQl9RYC-333" value="yes" style="edgeLabel;html=1;align=center;verticalAlign=middle;resizable=0;points=[];" parent="SfsOYb53XxXa-xQl9RYC-332" vertex="1" connectable="0">
          <mxGeometry x="0.0667" y="-2" relative="1" as="geometry">
            <mxPoint as="offset" />
          </mxGeometry>
        </mxCell>
        <mxCell id="SfsOYb53XxXa-xQl9RYC-334" style="edgeStyle=orthogonalEdgeStyle;rounded=0;orthogonalLoop=1;jettySize=auto;html=1;exitX=0;exitY=0.5;exitDx=0;exitDy=0;entryX=1;entryY=0.5;entryDx=0;entryDy=0;" parent="1" source="SfsOYb53XxXa-xQl9RYC-336" target="SfsOYb53XxXa-xQl9RYC-341" edge="1">
          <mxGeometry relative="1" as="geometry" />
        </mxCell>
        <mxCell id="SfsOYb53XxXa-xQl9RYC-335" value="no" style="edgeLabel;html=1;align=center;verticalAlign=middle;resizable=0;points=[];" parent="SfsOYb53XxXa-xQl9RYC-334" vertex="1" connectable="0">
          <mxGeometry x="-0.1905" y="-4" relative="1" as="geometry">
            <mxPoint as="offset" />
          </mxGeometry>
        </mxCell>
        <mxCell id="SfsOYb53XxXa-xQl9RYC-336" value="Find" style="rhombus;whiteSpace=wrap;html=1;" parent="1" vertex="1">
          <mxGeometry x="3070" y="625" width="80" height="80" as="geometry" />
        </mxCell>
        <mxCell id="SfsOYb53XxXa-xQl9RYC-337" style="edgeStyle=orthogonalEdgeStyle;rounded=0;orthogonalLoop=1;jettySize=auto;html=1;exitX=0;exitY=0.5;exitDx=0;exitDy=0;entryX=1;entryY=0.5;entryDx=0;entryDy=0;" parent="1" source="SfsOYb53XxXa-xQl9RYC-338" target="SfsOYb53XxXa-xQl9RYC-339" edge="1">
          <mxGeometry relative="1" as="geometry" />
        </mxCell>
        <mxCell id="SfsOYb53XxXa-xQl9RYC-338" value="Rerurn employee details where id from DataBase" style="rounded=1;whiteSpace=wrap;html=1;" parent="1" vertex="1">
          <mxGeometry x="3050" y="754.9999999999999" width="120" height="60" as="geometry" />
        </mxCell>
        <mxCell id="SfsOYb53XxXa-xQl9RYC-339" value="return menu search" style="rounded=1;whiteSpace=wrap;html=1;" parent="1" vertex="1">
          <mxGeometry x="2880" y="754.9999999999999" width="120" height="60" as="geometry" />
        </mxCell>
        <mxCell id="SfsOYb53XxXa-xQl9RYC-340" style="edgeStyle=orthogonalEdgeStyle;rounded=0;orthogonalLoop=1;jettySize=auto;html=1;exitX=0.5;exitY=1;exitDx=0;exitDy=0;" parent="1" source="SfsOYb53XxXa-xQl9RYC-341" target="SfsOYb53XxXa-xQl9RYC-339" edge="1">
          <mxGeometry relative="1" as="geometry" />
        </mxCell>
        <mxCell id="SfsOYb53XxXa-xQl9RYC-341" value="Exception errors" style="rounded=1;whiteSpace=wrap;html=1;" parent="1" vertex="1">
          <mxGeometry x="2880" y="635" width="120" height="60" as="geometry" />
        </mxCell>
        <mxCell id="SfsOYb53XxXa-xQl9RYC-352" style="edgeStyle=orthogonalEdgeStyle;rounded=0;orthogonalLoop=1;jettySize=auto;html=1;exitX=0.5;exitY=1;exitDx=0;exitDy=0;entryX=0.5;entryY=0;entryDx=0;entryDy=0;" parent="1" source="SfsOYb53XxXa-xQl9RYC-356" target="SfsOYb53XxXa-xQl9RYC-358" edge="1">
          <mxGeometry relative="1" as="geometry" />
        </mxCell>
        <mxCell id="SfsOYb53XxXa-xQl9RYC-353" value="yes" style="edgeLabel;html=1;align=center;verticalAlign=middle;resizable=0;points=[];" parent="SfsOYb53XxXa-xQl9RYC-352" vertex="1" connectable="0">
          <mxGeometry x="0.0667" y="-2" relative="1" as="geometry">
            <mxPoint as="offset" />
          </mxGeometry>
        </mxCell>
        <mxCell id="SfsOYb53XxXa-xQl9RYC-363" style="edgeStyle=orthogonalEdgeStyle;rounded=0;orthogonalLoop=1;jettySize=auto;html=1;exitX=1;exitY=0.5;exitDx=0;exitDy=0;entryX=0;entryY=0.5;entryDx=0;entryDy=0;" parent="1" source="SfsOYb53XxXa-xQl9RYC-356" target="SfsOYb53XxXa-xQl9RYC-361" edge="1">
          <mxGeometry relative="1" as="geometry" />
        </mxCell>
        <mxCell id="SfsOYb53XxXa-xQl9RYC-364" value="no" style="edgeLabel;html=1;align=center;verticalAlign=middle;resizable=0;points=[];" parent="SfsOYb53XxXa-xQl9RYC-363" vertex="1" connectable="0">
          <mxGeometry x="0.1905" y="-3" relative="1" as="geometry">
            <mxPoint as="offset" />
          </mxGeometry>
        </mxCell>
        <mxCell id="SfsOYb53XxXa-xQl9RYC-356" value="Find" style="rhombus;whiteSpace=wrap;html=1;" parent="1" vertex="1">
          <mxGeometry x="3223.87" y="640" width="80" height="80" as="geometry" />
        </mxCell>
        <mxCell id="SfsOYb53XxXa-xQl9RYC-366" style="edgeStyle=orthogonalEdgeStyle;rounded=0;orthogonalLoop=1;jettySize=auto;html=1;entryX=0;entryY=0.5;entryDx=0;entryDy=0;" parent="1" source="SfsOYb53XxXa-xQl9RYC-358" target="SfsOYb53XxXa-xQl9RYC-359" edge="1">
          <mxGeometry relative="1" as="geometry" />
        </mxCell>
        <mxCell id="SfsOYb53XxXa-xQl9RYC-358" value="Rerurn employee project details where id from DataBase" style="rounded=1;whiteSpace=wrap;html=1;" parent="1" vertex="1">
          <mxGeometry x="3203.87" y="755" width="120" height="60" as="geometry" />
        </mxCell>
        <mxCell id="SfsOYb53XxXa-xQl9RYC-359" value="return menu search" style="rounded=1;whiteSpace=wrap;html=1;" parent="1" vertex="1">
          <mxGeometry x="3353.87" y="754.9999999999999" width="120" height="60" as="geometry" />
        </mxCell>
        <mxCell id="SfsOYb53XxXa-xQl9RYC-360" style="edgeStyle=orthogonalEdgeStyle;rounded=0;orthogonalLoop=1;jettySize=auto;html=1;exitX=0.5;exitY=1;exitDx=0;exitDy=0;" parent="1" source="SfsOYb53XxXa-xQl9RYC-361" target="SfsOYb53XxXa-xQl9RYC-359" edge="1">
          <mxGeometry relative="1" as="geometry" />
        </mxCell>
        <mxCell id="SfsOYb53XxXa-xQl9RYC-361" value="Exception errors" style="rounded=1;whiteSpace=wrap;html=1;" parent="1" vertex="1">
          <mxGeometry x="3353.87" y="650" width="120" height="60" as="geometry" />
        </mxCell>
        <mxCell id="SfsOYb53XxXa-xQl9RYC-367" style="edgeStyle=orthogonalEdgeStyle;rounded=0;orthogonalLoop=1;jettySize=auto;html=1;exitX=0.5;exitY=1;exitDx=0;exitDy=0;entryX=0.5;entryY=0;entryDx=0;entryDy=0;" parent="1" source="SfsOYb53XxXa-xQl9RYC-371" target="SfsOYb53XxXa-xQl9RYC-373" edge="1">
          <mxGeometry relative="1" as="geometry" />
        </mxCell>
        <mxCell id="SfsOYb53XxXa-xQl9RYC-368" value="yes" style="edgeLabel;html=1;align=center;verticalAlign=middle;resizable=0;points=[];" parent="SfsOYb53XxXa-xQl9RYC-367" vertex="1" connectable="0">
          <mxGeometry x="0.0667" y="-2" relative="1" as="geometry">
            <mxPoint as="offset" />
          </mxGeometry>
        </mxCell>
        <mxCell id="SfsOYb53XxXa-xQl9RYC-369" style="edgeStyle=orthogonalEdgeStyle;rounded=0;orthogonalLoop=1;jettySize=auto;html=1;exitX=1;exitY=0.5;exitDx=0;exitDy=0;entryX=0;entryY=0.5;entryDx=0;entryDy=0;" parent="1" source="SfsOYb53XxXa-xQl9RYC-371" target="SfsOYb53XxXa-xQl9RYC-376" edge="1">
          <mxGeometry relative="1" as="geometry" />
        </mxCell>
        <mxCell id="SfsOYb53XxXa-xQl9RYC-370" value="no" style="edgeLabel;html=1;align=center;verticalAlign=middle;resizable=0;points=[];" parent="SfsOYb53XxXa-xQl9RYC-369" vertex="1" connectable="0">
          <mxGeometry x="0.1905" y="-3" relative="1" as="geometry">
            <mxPoint as="offset" />
          </mxGeometry>
        </mxCell>
        <mxCell id="SfsOYb53XxXa-xQl9RYC-371" value="Find" style="rhombus;whiteSpace=wrap;html=1;" parent="1" vertex="1">
          <mxGeometry x="3510" y="640" width="80" height="80" as="geometry" />
        </mxCell>
        <mxCell id="SfsOYb53XxXa-xQl9RYC-372" style="edgeStyle=orthogonalEdgeStyle;rounded=0;orthogonalLoop=1;jettySize=auto;html=1;entryX=0;entryY=0.5;entryDx=0;entryDy=0;" parent="1" source="SfsOYb53XxXa-xQl9RYC-373" target="SfsOYb53XxXa-xQl9RYC-374" edge="1">
          <mxGeometry relative="1" as="geometry" />
        </mxCell>
        <mxCell id="SfsOYb53XxXa-xQl9RYC-373" value="Rerurn Project details where id from DataBase" style="rounded=1;whiteSpace=wrap;html=1;" parent="1" vertex="1">
          <mxGeometry x="3490" y="755" width="120" height="60" as="geometry" />
        </mxCell>
        <mxCell id="SfsOYb53XxXa-xQl9RYC-374" value="return menu search" style="rounded=1;whiteSpace=wrap;html=1;" parent="1" vertex="1">
          <mxGeometry x="3640" y="754.9999999999999" width="120" height="60" as="geometry" />
        </mxCell>
        <mxCell id="SfsOYb53XxXa-xQl9RYC-375" style="edgeStyle=orthogonalEdgeStyle;rounded=0;orthogonalLoop=1;jettySize=auto;html=1;exitX=0.5;exitY=1;exitDx=0;exitDy=0;" parent="1" source="SfsOYb53XxXa-xQl9RYC-376" target="SfsOYb53XxXa-xQl9RYC-374" edge="1">
          <mxGeometry relative="1" as="geometry" />
        </mxCell>
        <mxCell id="SfsOYb53XxXa-xQl9RYC-376" value="Exception errors" style="rounded=1;whiteSpace=wrap;html=1;" parent="1" vertex="1">
          <mxGeometry x="3640" y="650" width="120" height="60" as="geometry" />
        </mxCell>
        <mxCell id="SfsOYb53XxXa-xQl9RYC-401" style="edgeStyle=orthogonalEdgeStyle;rounded=0;orthogonalLoop=1;jettySize=auto;html=1;exitX=0.5;exitY=1;exitDx=0;exitDy=0;entryX=0.5;entryY=0;entryDx=0;entryDy=0;" parent="1" source="SfsOYb53XxXa-xQl9RYC-405" target="SfsOYb53XxXa-xQl9RYC-407" edge="1">
          <mxGeometry relative="1" as="geometry" />
        </mxCell>
        <mxCell id="SfsOYb53XxXa-xQl9RYC-402" value="yes" style="edgeLabel;html=1;align=center;verticalAlign=middle;resizable=0;points=[];" parent="SfsOYb53XxXa-xQl9RYC-401" vertex="1" connectable="0">
          <mxGeometry x="0.0667" y="-2" relative="1" as="geometry">
            <mxPoint as="offset" />
          </mxGeometry>
        </mxCell>
        <mxCell id="SfsOYb53XxXa-xQl9RYC-403" style="edgeStyle=orthogonalEdgeStyle;rounded=0;orthogonalLoop=1;jettySize=auto;html=1;exitX=1;exitY=0.5;exitDx=0;exitDy=0;entryX=0;entryY=0.5;entryDx=0;entryDy=0;" parent="1" source="SfsOYb53XxXa-xQl9RYC-405" target="SfsOYb53XxXa-xQl9RYC-410" edge="1">
          <mxGeometry relative="1" as="geometry" />
        </mxCell>
        <mxCell id="SfsOYb53XxXa-xQl9RYC-404" value="no" style="edgeLabel;html=1;align=center;verticalAlign=middle;resizable=0;points=[];" parent="SfsOYb53XxXa-xQl9RYC-403" vertex="1" connectable="0">
          <mxGeometry x="0.1905" y="-3" relative="1" as="geometry">
            <mxPoint as="offset" />
          </mxGeometry>
        </mxCell>
        <mxCell id="SfsOYb53XxXa-xQl9RYC-405" value="Find" style="rhombus;whiteSpace=wrap;html=1;" parent="1" vertex="1">
          <mxGeometry x="3800" y="640" width="80" height="80" as="geometry" />
        </mxCell>
        <mxCell id="SfsOYb53XxXa-xQl9RYC-406" style="edgeStyle=orthogonalEdgeStyle;rounded=0;orthogonalLoop=1;jettySize=auto;html=1;entryX=0;entryY=0.5;entryDx=0;entryDy=0;" parent="1" source="SfsOYb53XxXa-xQl9RYC-407" target="SfsOYb53XxXa-xQl9RYC-408" edge="1">
          <mxGeometry relative="1" as="geometry" />
        </mxCell>
        <mxCell id="SfsOYb53XxXa-xQl9RYC-407" value="Rerurn Department details where id from DataBase" style="rounded=1;whiteSpace=wrap;html=1;" parent="1" vertex="1">
          <mxGeometry x="3780" y="755" width="120" height="60" as="geometry" />
        </mxCell>
        <mxCell id="SfsOYb53XxXa-xQl9RYC-408" value="return menu search" style="rounded=1;whiteSpace=wrap;html=1;" parent="1" vertex="1">
          <mxGeometry x="3930" y="754.9999999999999" width="120" height="60" as="geometry" />
        </mxCell>
        <mxCell id="SfsOYb53XxXa-xQl9RYC-409" style="edgeStyle=orthogonalEdgeStyle;rounded=0;orthogonalLoop=1;jettySize=auto;html=1;exitX=0.5;exitY=1;exitDx=0;exitDy=0;" parent="1" source="SfsOYb53XxXa-xQl9RYC-410" target="SfsOYb53XxXa-xQl9RYC-408" edge="1">
          <mxGeometry relative="1" as="geometry" />
        </mxCell>
        <mxCell id="SfsOYb53XxXa-xQl9RYC-410" value="Exception errors" style="rounded=1;whiteSpace=wrap;html=1;" parent="1" vertex="1">
          <mxGeometry x="3930" y="650" width="120" height="60" as="geometry" />
        </mxCell>
        <mxCell id="SfsOYb53XxXa-xQl9RYC-422" style="edgeStyle=orthogonalEdgeStyle;rounded=0;orthogonalLoop=1;jettySize=auto;html=1;exitX=0.5;exitY=1;exitDx=0;exitDy=0;entryX=0.5;entryY=0;entryDx=0;entryDy=0;" parent="1" source="SfsOYb53XxXa-xQl9RYC-426" target="SfsOYb53XxXa-xQl9RYC-428" edge="1">
          <mxGeometry relative="1" as="geometry" />
        </mxCell>
        <mxCell id="SfsOYb53XxXa-xQl9RYC-423" value="yes" style="edgeLabel;html=1;align=center;verticalAlign=middle;resizable=0;points=[];" parent="SfsOYb53XxXa-xQl9RYC-422" vertex="1" connectable="0">
          <mxGeometry x="0.0667" y="-2" relative="1" as="geometry">
            <mxPoint as="offset" />
          </mxGeometry>
        </mxCell>
        <mxCell id="SfsOYb53XxXa-xQl9RYC-424" style="edgeStyle=orthogonalEdgeStyle;rounded=0;orthogonalLoop=1;jettySize=auto;html=1;exitX=1;exitY=0.5;exitDx=0;exitDy=0;entryX=0;entryY=0.5;entryDx=0;entryDy=0;" parent="1" source="SfsOYb53XxXa-xQl9RYC-426" target="SfsOYb53XxXa-xQl9RYC-431" edge="1">
          <mxGeometry relative="1" as="geometry" />
        </mxCell>
        <mxCell id="SfsOYb53XxXa-xQl9RYC-425" value="no" style="edgeLabel;html=1;align=center;verticalAlign=middle;resizable=0;points=[];" parent="SfsOYb53XxXa-xQl9RYC-424" vertex="1" connectable="0">
          <mxGeometry x="0.1905" y="-3" relative="1" as="geometry">
            <mxPoint as="offset" />
          </mxGeometry>
        </mxCell>
        <mxCell id="SfsOYb53XxXa-xQl9RYC-426" value="Find" style="rhombus;whiteSpace=wrap;html=1;" parent="1" vertex="1">
          <mxGeometry x="4090" y="640" width="80" height="80" as="geometry" />
        </mxCell>
        <mxCell id="SfsOYb53XxXa-xQl9RYC-427" style="edgeStyle=orthogonalEdgeStyle;rounded=0;orthogonalLoop=1;jettySize=auto;html=1;entryX=0;entryY=0.5;entryDx=0;entryDy=0;" parent="1" source="SfsOYb53XxXa-xQl9RYC-428" target="SfsOYb53XxXa-xQl9RYC-429" edge="1">
          <mxGeometry relative="1" as="geometry" />
        </mxCell>
        <mxCell id="SfsOYb53XxXa-xQl9RYC-428" value="Rerurn Employee details where Department ID from DataBase" style="rounded=1;whiteSpace=wrap;html=1;" parent="1" vertex="1">
          <mxGeometry x="4070" y="755" width="120" height="60" as="geometry" />
        </mxCell>
        <mxCell id="SfsOYb53XxXa-xQl9RYC-429" value="return menu search" style="rounded=1;whiteSpace=wrap;html=1;" parent="1" vertex="1">
          <mxGeometry x="4220" y="754.9999999999999" width="120" height="60" as="geometry" />
        </mxCell>
        <mxCell id="SfsOYb53XxXa-xQl9RYC-430" style="edgeStyle=orthogonalEdgeStyle;rounded=0;orthogonalLoop=1;jettySize=auto;html=1;exitX=0.5;exitY=1;exitDx=0;exitDy=0;" parent="1" source="SfsOYb53XxXa-xQl9RYC-431" target="SfsOYb53XxXa-xQl9RYC-429" edge="1">
          <mxGeometry relative="1" as="geometry" />
        </mxCell>
        <mxCell id="SfsOYb53XxXa-xQl9RYC-431" value="Exception errors" style="rounded=1;whiteSpace=wrap;html=1;" parent="1" vertex="1">
          <mxGeometry x="4220" y="650" width="120" height="60" as="geometry" />
        </mxCell>
        <mxCell id="SfsOYb53XxXa-xQl9RYC-432" style="edgeStyle=orthogonalEdgeStyle;rounded=0;orthogonalLoop=1;jettySize=auto;html=1;exitX=0.5;exitY=1;exitDx=0;exitDy=0;entryX=0.5;entryY=0;entryDx=0;entryDy=0;" parent="1" source="SfsOYb53XxXa-xQl9RYC-436" target="SfsOYb53XxXa-xQl9RYC-438" edge="1">
          <mxGeometry relative="1" as="geometry" />
        </mxCell>
        <mxCell id="SfsOYb53XxXa-xQl9RYC-433" value="yes" style="edgeLabel;html=1;align=center;verticalAlign=middle;resizable=0;points=[];" parent="SfsOYb53XxXa-xQl9RYC-432" vertex="1" connectable="0">
          <mxGeometry x="0.0667" y="-2" relative="1" as="geometry">
            <mxPoint as="offset" />
          </mxGeometry>
        </mxCell>
        <mxCell id="SfsOYb53XxXa-xQl9RYC-434" style="edgeStyle=orthogonalEdgeStyle;rounded=0;orthogonalLoop=1;jettySize=auto;html=1;exitX=1;exitY=0.5;exitDx=0;exitDy=0;entryX=0;entryY=0.5;entryDx=0;entryDy=0;" parent="1" source="SfsOYb53XxXa-xQl9RYC-436" target="SfsOYb53XxXa-xQl9RYC-441" edge="1">
          <mxGeometry relative="1" as="geometry" />
        </mxCell>
        <mxCell id="SfsOYb53XxXa-xQl9RYC-435" value="no" style="edgeLabel;html=1;align=center;verticalAlign=middle;resizable=0;points=[];" parent="SfsOYb53XxXa-xQl9RYC-434" vertex="1" connectable="0">
          <mxGeometry x="0.1905" y="-3" relative="1" as="geometry">
            <mxPoint as="offset" />
          </mxGeometry>
        </mxCell>
        <mxCell id="SfsOYb53XxXa-xQl9RYC-436" value="Find" style="rhombus;whiteSpace=wrap;html=1;" parent="1" vertex="1">
          <mxGeometry x="4370" y="640" width="80" height="80" as="geometry" />
        </mxCell>
        <mxCell id="SfsOYb53XxXa-xQl9RYC-437" style="edgeStyle=orthogonalEdgeStyle;rounded=0;orthogonalLoop=1;jettySize=auto;html=1;entryX=0;entryY=0.5;entryDx=0;entryDy=0;" parent="1" source="SfsOYb53XxXa-xQl9RYC-438" target="SfsOYb53XxXa-xQl9RYC-439" edge="1">
          <mxGeometry relative="1" as="geometry" />
        </mxCell>
        <mxCell id="SfsOYb53XxXa-xQl9RYC-438" value="Rerurn employee Project and project details where employee id from DataBase" style="rounded=1;whiteSpace=wrap;html=1;" parent="1" vertex="1">
          <mxGeometry x="4350" y="755" width="120" height="85" as="geometry" />
        </mxCell>
        <mxCell id="SfsOYb53XxXa-xQl9RYC-439" value="return menu search" style="rounded=1;whiteSpace=wrap;html=1;" parent="1" vertex="1">
          <mxGeometry x="4500" y="754.9999999999999" width="120" height="60" as="geometry" />
        </mxCell>
        <mxCell id="SfsOYb53XxXa-xQl9RYC-440" style="edgeStyle=orthogonalEdgeStyle;rounded=0;orthogonalLoop=1;jettySize=auto;html=1;exitX=0.5;exitY=1;exitDx=0;exitDy=0;" parent="1" source="SfsOYb53XxXa-xQl9RYC-441" target="SfsOYb53XxXa-xQl9RYC-439" edge="1">
          <mxGeometry relative="1" as="geometry" />
        </mxCell>
        <mxCell id="SfsOYb53XxXa-xQl9RYC-441" value="Exception errors" style="rounded=1;whiteSpace=wrap;html=1;" parent="1" vertex="1">
          <mxGeometry x="4500" y="650" width="120" height="60" as="geometry" />
        </mxCell>
        <mxCell id="SfsOYb53XxXa-xQl9RYC-442" style="edgeStyle=orthogonalEdgeStyle;rounded=0;orthogonalLoop=1;jettySize=auto;html=1;exitX=0.5;exitY=1;exitDx=0;exitDy=0;entryX=0.5;entryY=0;entryDx=0;entryDy=0;" parent="1" source="SfsOYb53XxXa-xQl9RYC-446" target="SfsOYb53XxXa-xQl9RYC-448" edge="1">
          <mxGeometry relative="1" as="geometry" />
        </mxCell>
        <mxCell id="SfsOYb53XxXa-xQl9RYC-443" value="yes" style="edgeLabel;html=1;align=center;verticalAlign=middle;resizable=0;points=[];" parent="SfsOYb53XxXa-xQl9RYC-442" vertex="1" connectable="0">
          <mxGeometry x="0.0667" y="-2" relative="1" as="geometry">
            <mxPoint as="offset" />
          </mxGeometry>
        </mxCell>
        <mxCell id="SfsOYb53XxXa-xQl9RYC-444" style="edgeStyle=orthogonalEdgeStyle;rounded=0;orthogonalLoop=1;jettySize=auto;html=1;exitX=1;exitY=0.5;exitDx=0;exitDy=0;entryX=0;entryY=0.5;entryDx=0;entryDy=0;" parent="1" source="SfsOYb53XxXa-xQl9RYC-446" target="SfsOYb53XxXa-xQl9RYC-451" edge="1">
          <mxGeometry relative="1" as="geometry" />
        </mxCell>
        <mxCell id="SfsOYb53XxXa-xQl9RYC-445" value="no" style="edgeLabel;html=1;align=center;verticalAlign=middle;resizable=0;points=[];" parent="SfsOYb53XxXa-xQl9RYC-444" vertex="1" connectable="0">
          <mxGeometry x="0.1905" y="-3" relative="1" as="geometry">
            <mxPoint as="offset" />
          </mxGeometry>
        </mxCell>
        <mxCell id="SfsOYb53XxXa-xQl9RYC-446" value="Find" style="rhombus;whiteSpace=wrap;html=1;" parent="1" vertex="1">
          <mxGeometry x="4660" y="640" width="80" height="80" as="geometry" />
        </mxCell>
        <mxCell id="SfsOYb53XxXa-xQl9RYC-447" style="edgeStyle=orthogonalEdgeStyle;rounded=0;orthogonalLoop=1;jettySize=auto;html=1;entryX=0;entryY=0.5;entryDx=0;entryDy=0;" parent="1" source="SfsOYb53XxXa-xQl9RYC-448" target="SfsOYb53XxXa-xQl9RYC-449" edge="1">
          <mxGeometry relative="1" as="geometry" />
        </mxCell>
        <mxCell id="SfsOYb53XxXa-xQl9RYC-448" value="Rerurn employee project and employee details&amp;nbsp;where project id from DataBase" style="rounded=1;whiteSpace=wrap;html=1;" parent="1" vertex="1">
          <mxGeometry x="4640" y="755" width="120" height="85" as="geometry" />
        </mxCell>
        <mxCell id="SfsOYb53XxXa-xQl9RYC-449" value="return menu search" style="rounded=1;whiteSpace=wrap;html=1;" parent="1" vertex="1">
          <mxGeometry x="4790" y="754.9999999999999" width="120" height="60" as="geometry" />
        </mxCell>
        <mxCell id="SfsOYb53XxXa-xQl9RYC-450" style="edgeStyle=orthogonalEdgeStyle;rounded=0;orthogonalLoop=1;jettySize=auto;html=1;exitX=0.5;exitY=1;exitDx=0;exitDy=0;" parent="1" source="SfsOYb53XxXa-xQl9RYC-451" target="SfsOYb53XxXa-xQl9RYC-449" edge="1">
          <mxGeometry relative="1" as="geometry" />
        </mxCell>
        <mxCell id="SfsOYb53XxXa-xQl9RYC-451" value="Exception errors" style="rounded=1;whiteSpace=wrap;html=1;" parent="1" vertex="1">
          <mxGeometry x="4790" y="650" width="120" height="60" as="geometry" />
        </mxCell>
        <mxCell id="E8dn9dmq9w0HJliWu3S0-3" style="edgeStyle=orthogonalEdgeStyle;rounded=0;orthogonalLoop=1;jettySize=auto;html=1;" parent="1" source="E8dn9dmq9w0HJliWu3S0-1" target="E8dn9dmq9w0HJliWu3S0-4" edge="1">
          <mxGeometry relative="1" as="geometry">
            <mxPoint x="-210" y="-830" as="targetPoint" />
          </mxGeometry>
        </mxCell>
        <mxCell id="E8dn9dmq9w0HJliWu3S0-1" value="&lt;font style=&quot;font-size: 14px;&quot;&gt;query compile&lt;/font&gt;" style="rounded=1;whiteSpace=wrap;html=1;" parent="1" vertex="1">
          <mxGeometry x="-270" y="-1020" width="120" height="60" as="geometry" />
        </mxCell>
        <mxCell id="E8dn9dmq9w0HJliWu3S0-2" value="&lt;font style=&quot;font-size: 14px;&quot;&gt;concrruncy control&lt;/font&gt;" style="rounded=1;whiteSpace=wrap;html=1;" parent="1" vertex="1">
          <mxGeometry x="-270" y="-720" width="120" height="60" as="geometry" />
        </mxCell>
        <mxCell id="E8dn9dmq9w0HJliWu3S0-7" style="edgeStyle=orthogonalEdgeStyle;rounded=0;orthogonalLoop=1;jettySize=auto;html=1;exitX=0;exitY=0.5;exitDx=0;exitDy=0;" parent="1" source="E8dn9dmq9w0HJliWu3S0-4" target="E8dn9dmq9w0HJliWu3S0-6" edge="1">
          <mxGeometry relative="1" as="geometry" />
        </mxCell>
        <mxCell id="E8dn9dmq9w0HJliWu3S0-4" value="&lt;font style=&quot;font-size: 14px;&quot;&gt;execution engine&lt;/font&gt;" style="rounded=1;whiteSpace=wrap;html=1;" parent="1" vertex="1">
          <mxGeometry x="-270" y="-840" width="120" height="60" as="geometry" />
        </mxCell>
        <mxCell id="E8dn9dmq9w0HJliWu3S0-26" style="edgeStyle=orthogonalEdgeStyle;rounded=0;orthogonalLoop=1;jettySize=auto;html=1;exitX=0.5;exitY=1;exitDx=0;exitDy=0;entryX=0;entryY=0.5;entryDx=0;entryDy=0;" parent="1" source="E8dn9dmq9w0HJliWu3S0-6" target="E8dn9dmq9w0HJliWu3S0-18" edge="1">
          <mxGeometry relative="1" as="geometry" />
        </mxCell>
        <mxCell id="E8dn9dmq9w0HJliWu3S0-6" value="&lt;font style=&quot;font-size: 14px;&quot;&gt;loging and recovery&lt;/font&gt;" style="rounded=1;whiteSpace=wrap;html=1;" parent="1" vertex="1">
          <mxGeometry x="-640" y="-720" width="120" height="60" as="geometry" />
        </mxCell>
        <mxCell id="E8dn9dmq9w0HJliWu3S0-8" value="&lt;font style=&quot;font-size: 14px;&quot;&gt;index/file/record manager&lt;/font&gt;" style="rounded=1;whiteSpace=wrap;html=1;" parent="1" vertex="1">
          <mxGeometry x="-50" y="-720" width="120" height="60" as="geometry" />
        </mxCell>
        <mxCell id="E8dn9dmq9w0HJliWu3S0-15" style="edgeStyle=orthogonalEdgeStyle;rounded=0;orthogonalLoop=1;jettySize=auto;html=1;exitX=0;exitY=0.5;exitDx=0;exitDy=0;" parent="1" source="E8dn9dmq9w0HJliWu3S0-11" target="E8dn9dmq9w0HJliWu3S0-6" edge="1">
          <mxGeometry relative="1" as="geometry" />
        </mxCell>
        <mxCell id="E8dn9dmq9w0HJliWu3S0-16" style="edgeStyle=orthogonalEdgeStyle;rounded=0;orthogonalLoop=1;jettySize=auto;html=1;exitX=1;exitY=0.5;exitDx=0;exitDy=0;" parent="1" source="E8dn9dmq9w0HJliWu3S0-11" target="E8dn9dmq9w0HJliWu3S0-2" edge="1">
          <mxGeometry relative="1" as="geometry" />
        </mxCell>
        <mxCell id="E8dn9dmq9w0HJliWu3S0-11" value="&lt;font style=&quot;font-size: 14px;&quot;&gt;transaction&lt;/font&gt;" style="rounded=1;whiteSpace=wrap;html=1;" parent="1" vertex="1">
          <mxGeometry x="-450" y="-720" width="120" height="60" as="geometry" />
        </mxCell>
        <mxCell id="E8dn9dmq9w0HJliWu3S0-18" value="&lt;font style=&quot;font-size: 14px;&quot;&gt;Buffer manager&lt;/font&gt;" style="rounded=1;whiteSpace=wrap;html=1;" parent="1" vertex="1">
          <mxGeometry x="-50" y="-590" width="120" height="60" as="geometry" />
        </mxCell>
        <mxCell id="E8dn9dmq9w0HJliWu3S0-23" value="" style="endArrow=classic;startArrow=classic;html=1;rounded=0;exitX=0.5;exitY=1;exitDx=0;exitDy=0;entryX=0.5;entryY=0;entryDx=0;entryDy=0;" parent="1" source="E8dn9dmq9w0HJliWu3S0-4" target="E8dn9dmq9w0HJliWu3S0-2" edge="1">
          <mxGeometry width="50" height="50" relative="1" as="geometry">
            <mxPoint x="-390" y="-510" as="sourcePoint" />
            <mxPoint x="-233" y="-660" as="targetPoint" />
          </mxGeometry>
        </mxCell>
        <mxCell id="E8dn9dmq9w0HJliWu3S0-24" value="" style="endArrow=classic;startArrow=classic;html=1;rounded=0;entryX=0.5;entryY=1;entryDx=0;entryDy=0;exitX=0.5;exitY=0;exitDx=0;exitDy=0;" parent="1" source="E8dn9dmq9w0HJliWu3S0-18" target="E8dn9dmq9w0HJliWu3S0-8" edge="1">
          <mxGeometry width="50" height="50" relative="1" as="geometry">
            <mxPoint x="-90" y="-740" as="sourcePoint" />
            <mxPoint x="-40" y="-790" as="targetPoint" />
          </mxGeometry>
        </mxCell>
        <mxCell id="E8dn9dmq9w0HJliWu3S0-25" value="" style="endArrow=classic;startArrow=classic;html=1;rounded=0;entryX=1;entryY=0.5;entryDx=0;entryDy=0;exitX=0.5;exitY=0;exitDx=0;exitDy=0;" parent="1" source="E8dn9dmq9w0HJliWu3S0-8" target="E8dn9dmq9w0HJliWu3S0-4" edge="1">
          <mxGeometry width="50" height="50" relative="1" as="geometry">
            <mxPoint x="10" y="-750" as="sourcePoint" />
            <mxPoint x="10" y="-820" as="targetPoint" />
            <Array as="points">
              <mxPoint x="10" y="-810" />
            </Array>
          </mxGeometry>
        </mxCell>
        <mxCell id="igDfcRrw8gRZTSzskd5A-1" value="&lt;font style=&quot;font-size: 14px;&quot;&gt;storage manager&amp;nbsp;&lt;/font&gt;" style="rounded=1;whiteSpace=wrap;html=1;" parent="1" vertex="1">
          <mxGeometry x="-50" y="-490" width="120" height="60" as="geometry" />
        </mxCell>
        <mxCell id="igDfcRrw8gRZTSzskd5A-4" value="&lt;font style=&quot;font-size: 14px;&quot;&gt;storage&lt;/font&gt;" style="shape=cylinder3;whiteSpace=wrap;html=1;boundedLbl=1;backgroundOutline=1;size=15;" parent="1" vertex="1">
          <mxGeometry x="-45" y="-390" width="110" height="80" as="geometry" />
        </mxCell>
        <mxCell id="igDfcRrw8gRZTSzskd5A-9" value="" style="verticalLabelPosition=bottom;verticalAlign=top;html=1;shape=mxgraph.basic.frame;dx=10;whiteSpace=wrap;" parent="1" vertex="1">
          <mxGeometry x="160" y="-590" width="100" height="60" as="geometry" />
        </mxCell>
        <mxCell id="igDfcRrw8gRZTSzskd5A-12" value="&lt;font style=&quot;font-size: 18px;&quot;&gt;Buffers&lt;/font&gt;" style="text;html=1;align=center;verticalAlign=middle;resizable=0;points=[];autosize=1;strokeColor=none;fillColor=none;" parent="1" vertex="1">
          <mxGeometry x="170" y="-580" width="80" height="40" as="geometry" />
        </mxCell>
        <mxCell id="igDfcRrw8gRZTSzskd5A-14" value="" style="endArrow=classic;startArrow=classic;html=1;rounded=0;exitX=1;exitY=0.5;exitDx=0;exitDy=0;entryX=0;entryY=0.5;entryDx=0;entryDy=0;entryPerimeter=0;" parent="1" source="E8dn9dmq9w0HJliWu3S0-18" target="igDfcRrw8gRZTSzskd5A-9" edge="1">
          <mxGeometry width="50" height="50" relative="1" as="geometry">
            <mxPoint x="90" y="-780" as="sourcePoint" />
            <mxPoint x="140" y="-830" as="targetPoint" />
          </mxGeometry>
        </mxCell>
        <mxCell id="igDfcRrw8gRZTSzskd5A-22" value="" style="endArrow=none;dashed=1;html=1;dashPattern=1 3;strokeWidth=2;rounded=0;entryX=1;entryY=0;entryDx=0;entryDy=0;exitX=0.5;exitY=0;exitDx=0;exitDy=0;exitPerimeter=0;" parent="1" source="igDfcRrw8gRZTSzskd5A-9" target="E8dn9dmq9w0HJliWu3S0-4" edge="1">
          <mxGeometry width="50" height="50" relative="1" as="geometry">
            <mxPoint x="510" y="-780" as="sourcePoint" />
            <mxPoint x="10" y="-910" as="targetPoint" />
            <Array as="points">
              <mxPoint x="210" y="-840" />
            </Array>
          </mxGeometry>
        </mxCell>
        <mxCell id="igDfcRrw8gRZTSzskd5A-25" value="" style="endArrow=none;dashed=1;html=1;dashPattern=1 3;strokeWidth=2;rounded=0;entryX=1;entryY=0.5;entryDx=0;entryDy=0;exitX=1;exitY=0.5;exitDx=0;exitDy=0;exitPerimeter=0;" parent="1" source="igDfcRrw8gRZTSzskd5A-9" target="E8dn9dmq9w0HJliWu3S0-1" edge="1">
          <mxGeometry width="50" height="50" relative="1" as="geometry">
            <mxPoint x="-220" y="-670" as="sourcePoint" />
            <mxPoint x="-170" y="-720" as="targetPoint" />
            <Array as="points">
              <mxPoint x="320" y="-870" />
            </Array>
          </mxGeometry>
        </mxCell>
        <mxCell id="igDfcRrw8gRZTSzskd5A-27" value="" style="endArrow=none;dashed=1;html=1;dashPattern=1 3;strokeWidth=2;rounded=0;exitX=0;exitY=0;exitDx=100;exitDy=45;exitPerimeter=0;" parent="1" source="igDfcRrw8gRZTSzskd5A-9" edge="1">
          <mxGeometry width="50" height="50" relative="1" as="geometry">
            <mxPoint x="-690" y="-640" as="sourcePoint" />
            <mxPoint x="-640" y="-690" as="targetPoint" />
            <Array as="points">
              <mxPoint x="430" y="-870" />
              <mxPoint x="-230" y="-1120" />
              <mxPoint x="-680" y="-880" />
            </Array>
          </mxGeometry>
        </mxCell>
        <mxCell id="-ZlOnQSdgTH0rZQ5FgU3-1" value="" style="endArrow=classic;startArrow=classic;html=1;rounded=0;entryX=0.5;entryY=1;entryDx=0;entryDy=0;exitX=0.5;exitY=0;exitDx=0;exitDy=0;exitPerimeter=0;" edge="1" parent="1" source="igDfcRrw8gRZTSzskd5A-4" target="igDfcRrw8gRZTSzskd5A-1">
          <mxGeometry width="50" height="50" relative="1" as="geometry">
            <mxPoint x="-130" y="-370" as="sourcePoint" />
            <mxPoint x="-80" y="-420" as="targetPoint" />
          </mxGeometry>
        </mxCell>
        <mxCell id="-ZlOnQSdgTH0rZQ5FgU3-2" value="" style="endArrow=classic;startArrow=classic;html=1;rounded=0;entryX=0.5;entryY=1;entryDx=0;entryDy=0;exitX=0.5;exitY=0;exitDx=0;exitDy=0;" edge="1" parent="1" source="igDfcRrw8gRZTSzskd5A-1" target="E8dn9dmq9w0HJliWu3S0-18">
          <mxGeometry width="50" height="50" relative="1" as="geometry">
            <mxPoint x="-130" y="-370" as="sourcePoint" />
            <mxPoint x="-80" y="-420" as="targetPoint" />
          </mxGeometry>
        </mxCell>
      </root>
    </mxGraphModel>
  </diagram>
</mxfile>
